<svg width="32" height="32" viewBox="0 0 32 32" fill="none" xmlns="http://www.w3.org/2000/svg">
<path d="M17.7031 21.6281C18.0933 22.0189 18.0929 22.6521 17.7021 23.0424C17.3113 23.4327 16.6781 23.4323 16.2879 23.0415L9.62574 16.3701C9.2357 15.9796 9.23588 15.3468 9.62614 14.9565L16.2883 8.29296C16.6788 7.9024 17.312 7.90234 17.7025 8.29283C18.0931 8.68331 18.0932 9.31647 17.7027 9.70704L12.7427 14.6667H17.8651C19.9915 14.6667 21.6132 14.9893 23.0504 15.686L23.3789 15.8533C24.8569 16.6439 26.0228 17.8097 26.8133 19.2877C27.6259 20.8071 28 22.5116 28 24.8016C28 25.3539 27.5523 25.8016 27 25.8016C26.4477 25.8016 26 25.3539 26 24.8016C26 22.8232 25.6964 21.4403 25.0496 20.2309C24.4456 19.1015 23.5652 18.2211 22.4357 17.6171C21.3193 17.02 20.0552 16.7153 18.3112 16.6721L17.8651 16.6667H12.7493L17.7031 21.6281ZM12.3692 8.29283C12.7597 8.68331 12.7598 9.31647 12.3693 9.70704L6.41365 15.664L12.3697 21.6281C12.76 22.0189 12.7596 22.6521 12.3688 23.0424C11.978 23.4327 11.3448 23.4323 10.9546 23.0415L4.29241 16.3701C3.90237 15.9796 3.90256 15.3468 4.29282 14.9565L10.955 8.29296C11.3454 7.9024 11.9786 7.90234 12.3692 8.29283Z" fill="#C586BD"/>
</svg>
