<svg width="9" height="9" viewBox="0 0 9 9" fill="none" xmlns="http://www.w3.org/2000/svg">
<path d="M8.6578 1.43045L5.11614 7.80545C5.05436 7.91446 4.96477 8.00513 4.8565 8.06822C4.74824 8.1313 4.62519 8.16454 4.49989 8.16454C4.37459 8.16454 4.25153 8.1313 4.14327 8.06822C4.03501 8.00513 3.94542 7.91446 3.88364 7.80545L0.341969 1.43045C0.2798 1.32277 0.24707 1.20062 0.24707 1.07628C0.24707 0.951945 0.2798 0.829797 0.341969 0.722117C0.405269 0.61534 0.495519 0.527072 0.603674 0.466157C0.71183 0.405242 0.834095 0.373818 0.958219 0.375034H8.04155C8.16448 0.375055 8.28528 0.407067 8.39209 0.467922C8.4989 0.528777 8.58803 0.616379 8.65072 0.722117C8.71397 0.829175 8.74792 0.950996 8.74917 1.07533C8.75041 1.19967 8.7189 1.32215 8.6578 1.43045Z" fill="#C8AFCE"/>
</svg>
