<svg width="37" height="35" fill="none" xmlns="http://www.w3.org/2000/svg"><path d="M5.497 8.95a3.573 3.573 0 0 1-3.562-3.562 3.573 3.573 0 0 1 3.562-3.563A3.573 3.573 0 0 1 9.06 5.388 3.573 3.573 0 0 1 5.497 8.95zM18.5 8.95a3.573 3.573 0 0 1-3.563-3.562A3.573 3.573 0 0 1 18.5 1.825a3.573 3.573 0 0 1 3.563 3.563A3.573 3.573 0 0 1 18.5 8.95zM31.503 8.95a3.573 3.573 0 0 1-3.562-3.562 3.573 3.573 0 0 1 3.562-3.563 3.573 3.573 0 0 1 3.563 3.563 3.573 3.573 0 0 1-3.563 3.562zM5.497 21.063A3.573 3.573 0 0 1 1.935 17.5a3.573 3.573 0 0 1 3.562-3.563A3.573 3.573 0 0 1 9.06 17.5a3.573 3.573 0 0 1-3.563 3.563zM18.5 21.063a3.573 3.573 0 0 1-3.563-3.563 3.573 3.573 0 0 1 3.563-3.563 3.573 3.573 0 0 1 3.563 3.563 3.573 3.573 0 0 1-3.563 3.563zM31.503 21.063a3.573 3.573 0 0 1-3.562-3.563 3.573 3.573 0 0 1 3.562-3.563 3.573 3.573 0 0 1 3.563 3.563 3.573 3.573 0 0 1-3.563 3.563zM5.497 33.175a3.573 3.573 0 0 1-3.562-3.563 3.573 3.573 0 0 1 3.562-3.562 3.573 3.573 0 0 1 3.563 3.562 3.573 3.573 0 0 1-3.563 3.563zM18.5 33.175a3.573 3.573 0 0 1-3.563-3.563A3.573 3.573 0 0 1 18.5 26.05a3.573 3.573 0 0 1 3.563 3.562 3.573 3.573 0 0 1-3.563 3.563zM31.503 33.175a3.573 3.573 0 0 1-3.562-3.563 3.573 3.573 0 0 1 3.562-3.562 3.573 3.573 0 0 1 3.563 3.562 3.573 3.573 0 0 1-3.563 3.563z" stroke="#C586BD" stroke-width="3" stroke-miterlimit="10" stroke-linecap="round" stroke-linejoin="round" /></svg>