<svg width="16" height="22" viewBox="0 0 16 22" fill="none" xmlns="http://www.w3.org/2000/svg">
<path d="M15.875 3.19609H11.5V2.10234C11.5 1.21641 10.7836 0.5 9.89766 0.5H6.09687C5.21641 0.5 4.5 1.21641 4.5 2.10234V3.19609H0.125V4H1.27891L2.56953 19.8977C2.56953 20.7836 3.28594 21.5 4.17188 21.5H11.8828C12.7688 21.5 13.4852 20.7836 13.4852 19.8977L14.7594 4H15.875V3.19609ZM5.29844 2.10234C5.29844 1.65938 5.65937 1.29844 6.09687 1.29844H9.89766C10.3406 1.29844 10.6961 1.65938 10.6961 2.10234V3.19609H5.29844V2.10234ZM12.6813 19.8539V19.8758V19.8977C12.6813 20.3406 12.3203 20.7016 11.8828 20.7016H4.17188C3.72891 20.7016 3.37344 20.3406 3.37344 19.8977V19.8758V19.8539L2.07734 4H13.9555L12.6813 19.8539Z" fill="#4B5578"/>
<path d="M8.38281 5.75H7.61719V18.9297H8.38281V5.75Z" fill="#4B5578"/>
<path d="M11.5 5.75H10.7016L10.1165 18.9297H10.9149L11.5 5.75Z" fill="#4B5578"/>
<path d="M5.29297 5.75H4.5L5.08516 18.9297H5.88359L5.29297 5.75Z" fill="#4B5578"/>
</svg>
