<svg width="22" height="28" viewBox="0 0 22 28" fill="none" xmlns="http://www.w3.org/2000/svg">
<path d="M21.125 3.96641H15.5V2.56016C15.5 1.42109 14.5789 0.5 13.4398 0.5H8.55312C7.42109 0.5 6.5 1.42109 6.5 2.56016V3.96641H0.875V5H2.35859L4.01797 25.4398C4.01797 26.5789 4.93906 27.5 6.07812 27.5H15.9922C17.1313 27.5 18.0523 26.5789 18.0523 25.4398L19.6906 5H21.125V3.96641ZM7.52656 2.56016C7.52656 1.99063 7.99062 1.52656 8.55312 1.52656H13.4398C14.0094 1.52656 14.4664 1.99063 14.4664 2.56016V3.96641H7.52656V2.56016ZM17.0188 25.3836V25.4117V25.4398C17.0188 26.0094 16.5547 26.4734 15.9922 26.4734H6.07812C5.50859 26.4734 5.05156 26.0094 5.05156 25.4398V25.4117V25.3836L3.38516 5H18.657L17.0188 25.3836Z" fill="#4B5578"/>
<path d="M11.4922 7.25H10.5078V24.1953H11.4922V7.25Z" fill="#4B5578"/>
<path d="M15.4996 7.25H14.473L13.7207 24.1953H14.7473L15.4996 7.25Z" fill="#4B5578"/>
<path d="M7.51953 7.25H6.5L7.25234 24.1953H8.27891L7.51953 7.25Z" fill="#4B5578"/>
</svg>
