<svg width="21" height="21" viewBox="0 0 21 21" fill="none" xmlns="http://www.w3.org/2000/svg">
<path opacity="0.4" d="M20.0078 10.4818C20.0078 16.0048 15.5308 20.4818 10.0078 20.4818C4.48481 20.4818 0.0078125 16.0048 0.0078125 10.4818C0.0078125 4.95981 4.48481 0.481812 10.0078 0.481812C15.5308 0.481812 20.0078 4.95981 20.0078 10.4818Z" fill="#898FB2"/>
<path d="M13.8675 7.1868L12.2475 12.3068C12.1875 12.5168 12.0175 12.6868 11.8075 12.7478L6.70753 14.3468C6.36753 14.4578 6.03753 14.1268 6.14753 13.7868L7.74753 8.6568C7.80753 8.4468 7.97753 8.2868 8.18753 8.2168L13.3075 6.6168C13.6575 6.5068 13.9775 6.8368 13.8675 7.1868Z" fill="#898FB2"/>
</svg>
