<svg width="32" height="32" viewBox="0 0 32 32" fill="none" xmlns="http://www.w3.org/2000/svg">
<path d="M16 3C8.83 3 3 8.38 3 15C3.00323 17.384 3.76305 19.7054 5.17 21.63C5.24682 21.737 5.34397 21.8279 5.45591 21.8974C5.56784 21.9668 5.69236 22.0136 5.82237 22.035C5.95237 22.0563 6.0853 22.0518 6.21358 22.0218C6.34186 21.9918 6.46297 21.9368 6.57 21.86C6.67703 21.7832 6.76788 21.686 6.83736 21.5741C6.90684 21.4622 6.95359 21.3376 6.97495 21.2076C6.99631 21.0776 6.99185 20.9447 6.96183 20.8164C6.93181 20.6881 6.87682 20.567 6.8 20.46C5.63404 18.878 5.00344 16.9652 5 15C5 9.49 9.93 5 16 5C22.07 5 27 9.49 27 15C27 20.51 22.07 25 16 25C14.8628 25.0011 13.7314 24.8395 12.64 24.52C12.491 24.4765 12.3339 24.4684 12.1811 24.4961C12.0284 24.5239 11.8842 24.5869 11.76 24.68L10 26V23.92C10 23.6548 9.89464 23.4004 9.70711 23.2129C9.51957 23.0254 9.26522 22.92 9 22.92C8.73478 22.92 8.48043 23.0254 8.29289 23.2129C8.10536 23.4004 8 23.6548 8 23.92V28C8.00056 28.1847 8.05224 28.3656 8.14932 28.5227C8.2464 28.6798 8.38509 28.8069 8.55 28.89C8.70982 28.9645 8.8865 28.9954 9.06211 28.9796C9.23773 28.9638 9.40605 28.9018 9.55 28.8L12.55 26.57C13.677 26.8597 14.8364 27.0042 16 27C23.17 27 29 21.62 29 15C29 8.38 23.17 3 16 3Z" fill="url(#paint0_linear_114_27)"/>
<path d="M8.44996 19.8898L13.8 17.2198L15.59 18.9998C15.9647 19.3723 16.4716 19.5814 17 19.5814C17.5283 19.5814 18.0352 19.3723 18.41 18.9998L24.71 12.7098C24.8793 12.5418 24.983 12.3187 25.0023 12.0809C25.0216 11.8431 24.9552 11.6062 24.8152 11.413C24.6751 11.2199 24.4706 11.0831 24.2386 11.0275C24.0066 10.9719 23.7623 11.0011 23.55 11.1098L18.2 13.7798L16.41 11.9998C16.0352 11.6273 15.5283 11.4182 15 11.4182C14.4716 11.4182 13.9647 11.6273 13.59 11.9998L7.28996 18.2898C7.14893 18.4297 7.05275 18.6084 7.01368 18.8032C6.97461 18.9979 6.99442 19.1999 7.07059 19.3833C7.14675 19.5668 7.27582 19.7234 7.44134 19.8332C7.60686 19.943 7.80133 20.001 7.99996 19.9998C8.15683 20.0017 8.31164 19.9639 8.44996 19.8898ZM15 13.4098L17.29 15.7098C17.3402 15.7556 17.3976 15.7927 17.46 15.8198C17.5074 15.8593 17.5616 15.8898 17.62 15.9098H17.79C17.8563 15.9197 17.9237 15.9197 17.99 15.9098C18.0465 15.9147 18.1034 15.9147 18.16 15.9098C18.2332 15.9038 18.3046 15.8834 18.37 15.8498L18.86 15.6098L17 17.5898L14.71 15.2898C14.6505 15.2441 14.5868 15.2039 14.52 15.1698C14.4733 15.1373 14.423 15.1104 14.37 15.0898H14.19C14.1319 15.0497 14.0678 15.0193 14 14.9998C13.9434 14.995 13.8865 14.995 13.83 14.9998C13.7567 15.0059 13.6853 15.0262 13.62 15.0598L13.13 15.2998L15 13.4098Z" fill="url(#paint1_linear_114_27)"/>
<defs>
<linearGradient id="paint0_linear_114_27" x1="3" y1="12.2386" x2="29" y2="12.2386" gradientUnits="userSpaceOnUse">
<stop stop-color="#9345DD"/>
<stop offset="1" stop-color="#E747EB"/>
</linearGradient>
<linearGradient id="paint1_linear_114_27" x1="6.99414" y1="14.2" x2="25.0056" y2="14.2" gradientUnits="userSpaceOnUse">
<stop stop-color="#9345DD"/>
<stop offset="1" stop-color="#E747EB"/>
</linearGradient>
</defs>
</svg>
