<svg width="24" height="34" viewBox="0 0 24 34" fill="none" xmlns="http://www.w3.org/2000/svg">
<path d="M12.8361 27.2523H5.57611C2.98011 27.2523 0.912109 25.1403 0.912109 22.5883V4.90033C0.912109 2.30433 3.02411 0.236328 5.57611 0.236328H12.8361C15.4321 0.236328 17.5001 2.34833 17.5001 4.90033C17.5001 5.16433 17.3241 5.34033 17.0601 5.34033C16.7961 5.34033 16.6201 5.16433 16.6201 4.90033C16.6201 2.78833 14.9041 1.11633 12.8361 1.11633H5.57611C3.46411 1.11633 1.79211 2.83233 1.79211 4.90033V22.6323C1.79211 24.7443 3.50811 26.4163 5.57611 26.4163H12.8361C14.9481 26.4163 16.6201 24.7003 16.6201 22.6323V9.87233C16.6201 9.60833 16.7961 9.43233 17.0601 9.43233C17.3241 9.43233 17.5001 9.60833 17.5001 9.87233V22.6323C17.5001 25.1843 15.3881 27.2523 12.8361 27.2523Z" fill="#878B96"/>
<path d="M18.424 33.808H11.164C8.568 33.808 6.5 31.696 6.5 29.144C6.5 28.88 6.676 28.704 6.94 28.704C7.204 28.704 7.38 28.88 7.38 29.144C7.38 31.256 9.096 32.928 11.164 32.928H18.424C20.536 32.928 22.208 31.212 22.208 29.144V11.412C22.208 9.30005 20.492 7.62805 18.424 7.62805H11.164C9.052 7.62805 7.38 9.34405 7.38 11.412V24.348C7.38 24.612 7.204 24.788 6.94 24.788C6.676 24.788 6.5 24.612 6.5 24.348V11.412C6.5 8.81605 8.612 6.74805 11.164 6.74805H18.424C21.02 6.74805 23.088 8.86005 23.088 11.412V29.144C23.088 31.696 21.02 33.808 18.424 33.808Z" fill="#878B96"/>
</svg>
