<svg width="19" height="17" viewBox="0 0 19 17" fill="none" xmlns="http://www.w3.org/2000/svg">
<path d="M17.466 1.69932C16.4711 0.704337 15.1539 0.160522 13.7481 0.160522C12.3422 0.160522 11.021 0.708365 10.0261 1.70334L9.50643 2.22299L8.97874 1.69529C7.98379 0.700309 6.65854 0.148438 5.25272 0.148438C3.85092 0.148438 2.52969 0.69628 1.53877 1.68723C0.543821 2.68221 -0.00400608 4.00348 2.2057e-05 5.40934C2.2057e-05 6.8152 0.551877 8.13244 1.54683 9.12742L9.11167 16.6925C9.2164 16.7972 9.35739 16.8536 9.49435 16.8536C9.6313 16.8536 9.77229 16.8012 9.87702 16.6965L17.458 9.14353C18.4529 8.14855 19.0008 6.82728 19.0008 5.42142C19.0048 4.01556 18.461 2.6943 17.466 1.69932ZM16.6926 8.37414L9.49435 15.5444L2.31217 8.36205C1.52266 7.57251 1.08762 6.52517 1.08762 5.40934C1.08762 4.29351 1.51863 3.24617 2.30815 2.46066C3.09363 1.67515 4.14095 1.24009 5.25272 1.24009C6.36851 1.24009 7.41985 1.67515 8.20937 2.46468L9.11973 3.37507C9.33322 3.58857 9.67561 3.58857 9.8891 3.37507L10.7914 2.47274C11.5809 1.6832 12.6323 1.24815 13.744 1.24815C14.8558 1.24815 15.9031 1.6832 16.6926 2.46871C17.4821 3.25825 17.9132 4.3056 17.9132 5.42142C17.9172 6.53725 17.4821 7.5846 16.6926 8.37414Z" fill="#333333"/>
</svg>
