<svg width="24" height="24" viewBox="0 0 24 24" fill="none" xmlns="http://www.w3.org/2000/svg">
<path d="M11.9131 12.9319C11.9379 12.9319 11.9628 12.9319 11.9926 12.9319C12.0026 12.9319 12.0125 12.9319 12.0224 12.9319C12.0373 12.9319 12.0572 12.9319 12.0721 12.9319C13.5283 12.907 14.7062 12.3951 15.576 11.416C17.4894 9.25906 17.1713 5.5614 17.1365 5.20853C17.0123 2.55954 15.7599 1.29219 14.7261 0.700766C13.9558 0.258439 13.0562 0.0198799 12.0523 0H12.0175C12.0125 0 12.0026 0 11.9976 0H11.9678C11.4161 0 10.3326 0.0894595 9.29392 0.680886C8.25022 1.27231 6.97791 2.53966 6.85366 5.20853C6.81887 5.5614 6.50079 9.25906 8.41423 11.416C9.27901 12.3951 10.4569 12.907 11.9131 12.9319ZM8.18064 5.33278C8.18064 5.31787 8.18561 5.30296 8.18561 5.29302C8.34962 1.72955 10.8793 1.34686 11.9628 1.34686H11.9827C11.9926 1.34686 12.0075 1.34686 12.0224 1.34686C13.3643 1.37668 15.6455 1.92338 15.7996 5.29302C15.7996 5.30793 15.7996 5.32284 15.8046 5.33278C15.8096 5.36757 16.1574 8.74715 14.577 10.5264C13.9508 11.2321 13.1158 11.58 12.0175 11.59C12.0075 11.59 12.0026 11.59 11.9926 11.59C11.9827 11.59 11.9777 11.59 11.9678 11.59C10.8744 11.58 10.0344 11.2321 9.4132 10.5264C7.83772 8.75709 8.17567 5.3626 8.18064 5.33278Z" fill="#4B5578"/>
<path d="M22.206 19.0652C22.206 19.0603 22.206 19.0553 22.206 19.0503C22.206 19.0106 22.201 18.9708 22.201 18.9261C22.1712 17.942 22.1066 15.6409 19.9496 14.9054C19.9347 14.9004 19.9148 14.8954 19.8999 14.8904C17.6585 14.3189 15.7947 13.0267 15.7749 13.0118C15.4717 12.7981 15.0542 12.8726 14.8405 13.1758C14.6268 13.479 14.7013 13.8964 15.0045 14.1102C15.089 14.1698 17.067 15.5465 19.5421 16.1826C20.7001 16.5951 20.8293 17.8327 20.8641 18.9658C20.8641 19.0106 20.8641 19.0503 20.8691 19.0901C20.874 19.5374 20.8442 20.2282 20.7647 20.6258C19.9596 21.083 16.8036 22.6635 12.0026 22.6635C7.22153 22.6635 4.04572 21.0781 3.23561 20.6208C3.15609 20.2232 3.1213 19.5324 3.13124 19.0851C3.13124 19.0453 3.13621 19.0056 3.13621 18.9609C3.171 17.8277 3.30022 16.5902 4.45823 16.1777C6.93327 15.5415 8.91132 14.1599 8.99581 14.1052C9.29898 13.8915 9.37353 13.474 9.15982 13.1708C8.94611 12.8677 8.52863 12.7931 8.22547 13.0068C8.20559 13.0217 6.35179 14.3139 4.10039 14.8855C4.08051 14.8904 4.0656 14.8954 4.05069 14.9004C1.89372 15.6409 1.82911 17.942 1.79929 18.9211C1.79929 18.9658 1.79929 19.0056 1.79432 19.0453C1.79432 19.0503 1.79432 19.0553 1.79432 19.0603C1.78935 19.3187 1.78438 20.6457 2.04779 21.3117C2.09749 21.4409 2.18695 21.5502 2.30623 21.6248C2.45533 21.7242 6.02874 24.0004 12.0076 24.0004C17.9865 24.0004 21.5599 21.7192 21.709 21.6248C21.8233 21.5502 21.9177 21.4409 21.9674 21.3117C22.2159 20.6507 22.211 19.3237 22.206 19.0652Z" fill="#4B5578"/>
</svg>
