<svg width="24" height="24" viewBox="0 0 24 24" fill="none" xmlns="http://www.w3.org/2000/svg">
<g clip-path="url(#clip0_101_541)">
<path d="M22.0624 3.4092C20.8056 2.15238 19.1417 1.46546 17.366 1.46546C15.5902 1.46546 13.9213 2.15747 12.6645 3.41429L12.0081 4.07068L11.3416 3.40411C10.0848 2.1473 8.41078 1.4502 6.63501 1.4502C4.86432 1.4502 3.1954 2.14221 1.94371 3.39393C0.686931 4.65075 -0.00506031 6.31972 2.78614e-05 8.09554C2.78614e-05 9.87137 0.697108 11.5353 1.95389 12.7921L11.5095 22.3479C11.6418 22.4802 11.8199 22.5515 11.9929 22.5515C12.1659 22.5515 12.3439 22.4853 12.4762 22.353L22.0522 12.8124C23.309 11.5556 24.001 9.88663 24.001 8.11081C24.006 6.33498 23.3191 4.66602 22.0624 3.4092ZM21.0854 11.8406L11.9929 20.8978L2.92064 11.8253C1.92336 10.828 1.37384 9.50501 1.37384 8.09554C1.37384 6.68608 1.91827 5.36312 2.91555 4.37089C3.90775 3.37867 5.23067 2.82913 6.63501 2.82913C8.04443 2.82913 9.37245 3.37867 10.3697 4.37598L11.5197 5.52594C11.7893 5.79562 12.2218 5.79562 12.4915 5.52594L13.6313 4.38616C14.6285 3.38885 15.9565 2.83931 17.3609 2.83931C18.7652 2.83931 20.0881 3.38885 21.0854 4.38107C22.0827 5.37838 22.6271 6.70134 22.6271 8.11081C22.6322 9.52028 22.0827 10.8432 21.0854 11.8406Z" fill="#4B5578"/>
</g>
<defs>
<clipPath id="clip0_101_541">
<rect width="24" height="24" fill="white"/>
</clipPath>
</defs>
</svg>
