<svg width="23" height="23" viewBox="0 0 23 23" fill="none" xmlns="http://www.w3.org/2000/svg">
<path d="M22.7822 21.7487L16.8439 15.9054C18.3989 14.2159 19.3544 11.9815 19.3544 9.52279C19.3537 4.26316 15.0214 0 9.67684 0C4.33229 0 0 4.26316 0 9.52279C0 14.7824 4.33229 19.0456 9.67684 19.0456C11.9861 19.0456 14.104 18.2469 15.7677 16.919L21.729 22.7854C22.0195 23.0715 22.4911 23.0715 22.7816 22.7854C23.0727 22.4993 23.0727 22.0349 22.7822 21.7487ZM9.67684 17.5804C5.15476 17.5804 1.48892 13.9729 1.48892 9.52279C1.48892 5.07266 5.15476 1.46514 9.67684 1.46514C14.199 1.46514 17.8648 5.07266 17.8648 9.52279C17.8648 13.9729 14.199 17.5804 9.67684 17.5804Z" fill="#4B5578"/>
</svg>
