<svg width="32" height="32" viewBox="0 0 32 32" fill="none" xmlns="http://www.w3.org/2000/svg">
<path d="M20.45 13.3196C20.3269 13.3671 20.2145 13.4385 20.1191 13.5297C20.0237 13.6209 19.9474 13.7301 19.8944 13.8509C19.8414 13.9718 19.8128 14.1019 19.8104 14.2338C19.8079 14.3658 19.8316 14.4969 19.88 14.6196C20.2095 15.4745 20.2356 16.4165 19.9538 17.2883C19.6721 18.16 19.0996 18.9087 18.3322 19.409C17.5647 19.9093 16.6487 20.131 15.7374 20.0371C14.8261 19.9431 13.9746 19.5391 13.3254 18.8927C12.6762 18.2463 12.2685 17.3966 12.1706 16.4857C12.0727 15.5748 12.2904 14.6579 12.7874 13.8882C13.2844 13.1186 14.0305 12.5429 14.9011 12.2574C15.7716 11.9719 16.7138 11.9938 17.57 12.3196C17.818 12.4137 18.0932 12.4055 18.3352 12.2968C18.5771 12.188 18.7659 11.9876 18.86 11.7396C18.9542 11.4916 18.946 11.2164 18.8372 10.9745C18.7284 10.7326 18.528 10.5437 18.28 10.4496C16.9972 9.96433 15.5868 9.93325 14.2838 10.3615C12.9808 10.7898 11.8638 11.6516 11.119 12.8033C10.3742 13.955 10.0464 15.3272 10.1904 16.6912C10.3343 18.0552 10.9412 19.3287 11.91 20.2996C13.035 21.4232 14.56 22.0543 16.15 22.0543C17.74 22.0543 19.265 21.4232 20.39 20.2996C21.2138 19.478 21.7809 18.4347 22.0223 17.2966C22.2638 16.1586 22.1692 14.9749 21.75 13.8896C21.7025 13.7665 21.6311 13.654 21.5399 13.5587C21.4487 13.4633 21.3395 13.3869 21.2187 13.3339C21.0979 13.281 20.9677 13.2524 20.8358 13.2499C20.7039 13.2475 20.5728 13.2712 20.45 13.3196Z" fill="url(#paint0_linear_114_4)"/>
<path d="M23 10C23.5523 10 24 9.55228 24 9C24 8.44772 23.5523 8 23 8C22.4477 8 22 8.44772 22 9C22 9.55228 22.4477 10 23 10Z" fill="url(#paint1_linear_114_4)"/>
<path d="M28 8.99972C28.0003 7.69078 27.4872 6.43393 26.5711 5.49907C25.6549 4.56421 24.4087 4.0259 23.1 3.99972C18.4099 3.5691 13.6901 3.5691 9 3.99972C7.68766 3.99955 6.42787 4.51534 5.49245 5.43579C4.55703 6.35624 4.02099 7.60755 4 8.91972C3.63997 13.6061 3.63997 18.3133 4 22.9997C3.99974 24.3087 4.51277 25.5655 5.42893 26.5004C6.3451 27.4352 7.59132 27.9735 8.9 27.9997C11.26 28.2197 13.63 28.3397 16 28.3397C18.37 28.3397 20.71 28.2297 23.05 27.9997C24.3537 27.9868 25.6007 27.4653 26.5254 26.5462C27.4501 25.6272 27.9792 24.3833 28 23.0797C28.38 18.3941 28.38 13.6854 28 8.99972ZM26 22.9997C26 23.7954 25.6839 24.5584 25.1213 25.121C24.5587 25.6836 23.7956 25.9997 23 25.9997H22.9C18.2776 26.4497 13.6224 26.4497 9 25.9997C8.59921 25.9999 8.20245 25.9197 7.83316 25.764C7.46387 25.6082 7.12953 25.38 6.84988 25.0929C6.57024 24.8058 6.35095 24.4656 6.20498 24.0924C6.05901 23.7191 5.98931 23.3204 6 22.9197C5.64999 18.2863 5.64999 13.6331 6 8.99972C5.99982 8.59806 6.08029 8.20046 6.23665 7.83049C6.39301 7.46052 6.62208 7.12572 6.91025 6.84593C7.19843 6.56615 7.53986 6.34708 7.91429 6.20172C8.28872 6.05636 8.68852 5.98767 9.09 5.99972C11.3833 5.79305 13.6833 5.68638 15.99 5.67972C18.2967 5.67305 20.6333 5.77972 23 5.99972C23.4008 5.99957 23.7975 6.07974 24.1668 6.23548C24.5361 6.39123 24.8705 6.61939 25.1501 6.90649C25.4298 7.19359 25.649 7.53382 25.795 7.90708C25.941 8.28034 26.0107 8.67907 26 9.07972C26.38 13.7119 26.38 18.3675 26 22.9997Z" fill="url(#paint2_linear_114_4)"/>
<defs>
<linearGradient id="paint0_linear_114_4" x1="10.1572" y1="14.3256" x2="22.153" y2="14.3256" gradientUnits="userSpaceOnUse">
<stop stop-color="#9345DD"/>
<stop offset="1" stop-color="#E747EB"/>
</linearGradient>
<linearGradient id="paint1_linear_114_4" x1="22" y1="8.71111" x2="24" y2="8.71111" gradientUnits="userSpaceOnUse">
<stop stop-color="#9345DD"/>
<stop offset="1" stop-color="#E747EB"/>
</linearGradient>
<linearGradient id="paint2_linear_114_4" x1="3.72998" y1="12.4458" x2="28.285" y2="12.4458" gradientUnits="userSpaceOnUse">
<stop stop-color="#9345DD"/>
<stop offset="1" stop-color="#E747EB"/>
</linearGradient>
</defs>
</svg>
