<svg width="36" height="34" viewBox="0 0 36 34" fill="none" xmlns="http://www.w3.org/2000/svg">
<path d="M18.5286 17.9347L29.6323 7.4372C29.8166 7.23395 29.9129 6.97249 29.902 6.70508C29.8911 6.43768 29.7737 6.18402 29.5733 5.99479C29.373 5.80557 29.1044 5.69471 28.8213 5.68439C28.5381 5.67406 28.2613 5.76501 28.0461 5.93908L17.8536 15.5653L7.95357 6.21533C7.74278 6.01744 7.45765 5.90636 7.16044 5.90636C6.86323 5.90636 6.5781 6.01744 6.36732 6.21533C6.26187 6.3141 6.17818 6.43162 6.12107 6.56109C6.06395 6.69057 6.03455 6.82944 6.03455 6.9697C6.03455 7.10997 6.06395 7.24884 6.12107 7.37832C6.17818 7.50779 6.26187 7.6253 6.36732 7.72408L17.1786 17.9347C17.3578 18.1034 17.6005 18.1981 17.8536 18.1981C18.1066 18.1981 18.3493 18.1034 18.5286 17.9347Z" fill="#C586BD"/>
<path d="M18.5286 28.1134L29.6323 17.6159C29.8166 17.4127 29.9129 17.1512 29.902 16.8838C29.8911 16.6164 29.7737 16.3627 29.5733 16.1735C29.373 15.9843 29.1044 15.8734 28.8213 15.8631C28.5381 15.8528 28.2613 15.9437 28.0461 16.1178L17.8536 25.744L7.95357 16.394C7.74278 16.1961 7.45765 16.0851 7.16044 16.0851C6.86323 16.0851 6.5781 16.1961 6.36732 16.394C6.15779 16.5931 6.04018 16.8624 6.04018 17.1431C6.04018 17.4238 6.15779 17.6931 6.36732 17.8922L17.1786 28.1134C17.3578 28.2821 17.6005 28.3768 17.8536 28.3768C18.1066 28.3768 18.3493 28.2821 18.5286 28.1134Z" fill="#C586BD"/>
</svg>
