<svg width="21" height="20" viewBox="0 0 21 20" fill="none" xmlns="http://www.w3.org/2000/svg">
<path d="M10.8084 10.5503L17.2856 4.37529C17.3931 4.25572 17.4492 4.10192 17.4429 3.94463C17.4365 3.78733 17.368 3.63812 17.2511 3.52681C17.1343 3.4155 16.9776 3.35029 16.8124 3.34422C16.6473 3.33814 16.4858 3.39164 16.3602 3.49404L10.4146 9.15654L4.63962 3.65653C4.51666 3.54013 4.35034 3.47479 4.17696 3.47479C4.00359 3.47479 3.83727 3.54013 3.71431 3.65653C3.6528 3.71464 3.60398 3.78376 3.57066 3.85992C3.53734 3.93609 3.52019 4.01778 3.52019 4.10028C3.52019 4.18279 3.53734 4.26448 3.57066 4.34065C3.60398 4.41681 3.6528 4.48593 3.71431 4.54403L10.0209 10.5503C10.1254 10.6495 10.267 10.7052 10.4146 10.7052C10.5622 10.7052 10.7038 10.6495 10.8084 10.5503Z" fill="#C586BD"/>
<path d="M10.8084 16.5376L17.2856 10.3626C17.3931 10.243 17.4492 10.0892 17.4429 9.93193C17.4365 9.77463 17.368 9.62542 17.2511 9.51411C17.1343 9.4028 16.9776 9.3376 16.8124 9.33152C16.6473 9.32545 16.4858 9.37895 16.3602 9.48134L10.4146 15.1438L4.63962 9.64384C4.51666 9.52743 4.35034 9.46209 4.17696 9.46209C4.00359 9.46209 3.83727 9.52743 3.71431 9.64384C3.59208 9.76094 3.52348 9.91935 3.52348 10.0845C3.52348 10.2496 3.59208 10.408 3.71431 10.5251L10.0209 16.5376C10.1254 16.6368 10.267 16.6925 10.4146 16.6925C10.5622 16.6925 10.7038 16.6368 10.8084 16.5376Z" fill="#C586BD"/>
</svg>
