<svg width="27" height="28" viewBox="0 0 27 28" fill="none" xmlns="http://www.w3.org/2000/svg">
<path d="M14.2425 13.5888L5.90624 4.95259C5.74483 4.80924 5.53721 4.73433 5.32486 4.74284C5.1125 4.75135 4.91107 4.84264 4.7608 4.99847C4.61053 5.1543 4.5225 5.3632 4.5143 5.58342C4.5061 5.80363 4.57833 6.01895 4.71656 6.18634L12.3609 14.1138L4.93593 21.8138C4.77878 21.9778 4.69058 22.1995 4.69058 22.4307C4.69058 22.6619 4.77878 22.8836 4.93593 23.0476C5.01437 23.1296 5.10769 23.1947 5.21051 23.2391C5.31333 23.2835 5.42361 23.3064 5.53499 23.3064C5.64638 23.3064 5.75666 23.2835 5.85948 23.2391C5.9623 23.1947 6.05562 23.1296 6.13406 23.0476L14.2425 14.6388C14.3765 14.4994 14.4517 14.3106 14.4517 14.1138C14.4517 13.917 14.3765 13.7282 14.2425 13.5888Z" fill="white"/>
<path d="M22.3255 13.5888L13.9893 4.95259C13.8278 4.80924 13.6202 4.73433 13.4079 4.74284C13.1955 4.75135 12.9941 4.84264 12.8438 4.99847C12.6935 5.1543 12.6055 5.3632 12.5973 5.58342C12.5891 5.80363 12.6613 6.01895 12.7996 6.18634L20.4439 14.1138L13.0189 21.8138C12.8618 21.9778 12.7736 22.1995 12.7736 22.4307C12.7736 22.6619 12.8618 22.8836 13.0189 23.0476C13.177 23.2106 13.3909 23.302 13.6138 23.302C13.8367 23.302 14.0505 23.2106 14.2086 23.0476L22.3255 14.6388C22.4595 14.4994 22.5347 14.3106 22.5347 14.1138C22.5347 13.917 22.4595 13.7282 22.3255 13.5888Z" fill="white"/>
</svg>
