<svg width="28" height="28" viewBox="0 0 28 28" fill="none" xmlns="http://www.w3.org/2000/svg">
<path d="M21.875 6.19609H17.5V5.10234C17.5 4.21641 16.7836 3.5 15.8977 3.5H12.0969C11.2164 3.5 10.5 4.21641 10.5 5.10234V6.19609H6.125V7H7.27891L8.56953 22.8977C8.56953 23.7836 9.28594 24.5 10.1719 24.5H17.8828C18.7688 24.5 19.4852 23.7836 19.4852 22.8977L20.7594 7H21.875V6.19609ZM11.2984 5.10234C11.2984 4.65938 11.6594 4.29844 12.0969 4.29844H15.8977C16.3406 4.29844 16.6961 4.65938 16.6961 5.10234V6.19609H11.2984V5.10234V5.10234ZM18.6813 22.8539V22.8758V22.8977C18.6813 23.3406 18.3203 23.7016 17.8828 23.7016H10.1719C9.72891 23.7016 9.37344 23.3406 9.37344 22.8977V22.8758V22.8539L8.07734 7H19.9555L18.6813 22.8539Z" fill="#4B5578"/>
<path d="M14.3828 8.75H13.6172V21.9297H14.3828V8.75Z" fill="#4B5578"/>
<path d="M17.4998 8.75H16.7014L16.1162 21.9297H16.9146L17.4998 8.75Z" fill="#4B5578"/>
<path d="M11.293 8.75H10.5L11.0852 21.9297H11.8836L11.293 8.75Z" fill="#4B5578"/>
</svg>
