<svg width="23" height="17" viewBox="0 0 23 17" fill="none" xmlns="http://www.w3.org/2000/svg">
<path d="M21.625 5.96875C21.4012 5.96875 21.1866 6.05765 21.0284 6.21588C20.8701 6.37411 20.7812 6.58872 20.7812 6.8125V13.5625C20.7812 13.7863 20.6924 14.0009 20.5341 14.1591C20.3759 14.3174 20.1613 14.4062 19.9375 14.4062H3.0625C2.83872 14.4062 2.62411 14.3174 2.46588 14.1591C2.30764 14.0009 2.21875 13.7863 2.21875 13.5625V6.8125C2.21875 6.58872 2.12986 6.37411 1.97162 6.21588C1.81339 6.05765 1.59878 5.96875 1.375 5.96875C1.15122 5.96875 0.936612 6.05765 0.778379 6.21588C0.620145 6.37411 0.53125 6.58872 0.53125 6.8125V13.5625C0.531841 14.2336 0.798913 14.877 1.27375 15.3513C1.748 15.8261 2.3914 16.0932 3.0625 16.0938H19.9375C20.6086 16.0932 21.252 15.8261 21.7263 15.3513C22.2011 14.877 22.4682 14.2336 22.4688 13.5625V6.8125C22.4688 6.58872 22.3799 6.37411 22.2216 6.21588C22.0634 6.05765 21.8488 5.96875 21.625 5.96875Z" fill="#A678C7"/>
<path d="M10.9938 10.8625C11.1398 10.972 11.3175 11.0312 11.5 11.0312C11.6826 11.0312 11.8602 10.972 12.0063 10.8625L21.971 3.38687C22.1264 3.26965 22.2366 3.10228 22.2827 2.91313C22.3288 2.72398 22.3081 2.52469 22.2241 2.34906C22.0984 2.08946 21.9302 1.85274 21.7263 1.64875C21.252 1.17391 20.6086 0.906841 19.9375 0.90625H3.06254C2.39144 0.906841 1.74804 1.17391 1.27379 1.64875C1.0699 1.85274 0.901636 2.08946 0.775979 2.34906C0.691955 2.52469 0.671256 2.72398 0.71739 2.91313C0.763524 3.10228 0.873653 3.26965 1.0291 3.38687L10.9938 10.8625ZM3.06254 2.59375H19.9375C20.0158 2.58142 20.0955 2.58142 20.1738 2.59375L11.5 9.13281L2.82629 2.59375C2.90456 2.58142 2.98427 2.58142 3.06254 2.59375Z" fill="#A678C7"/>
</svg>
