<svg width="23" height="22" viewBox="0 0 23 22" fill="none" xmlns="http://www.w3.org/2000/svg">
<path d="M21.625 10.9688C21.4012 10.9688 21.1866 11.0576 21.0284 11.2159C20.8701 11.3741 20.7812 11.5887 20.7812 11.8125V18.5625C20.7812 18.7863 20.6924 19.0009 20.5341 19.1591C20.3759 19.3174 20.1613 19.4062 19.9375 19.4062H3.0625C2.83872 19.4062 2.62411 19.3174 2.46588 19.1591C2.30764 19.0009 2.21875 18.7863 2.21875 18.5625V11.8125C2.21875 11.5887 2.12986 11.3741 1.97162 11.2159C1.81339 11.0576 1.59878 10.9688 1.375 10.9688C1.15122 10.9688 0.936612 11.0576 0.778379 11.2159C0.620145 11.3741 0.53125 11.5887 0.53125 11.8125V18.5625C0.531841 19.2336 0.798913 19.877 1.27375 20.3513C1.748 20.8261 2.3914 21.0932 3.0625 21.0938H19.9375C20.6086 21.0932 21.252 20.8261 21.7263 20.3513C22.2011 19.877 22.4682 19.2336 22.4688 18.5625V11.8125C22.4688 11.5887 22.3799 11.3741 22.2216 11.2159C22.0634 11.0576 21.8488 10.9688 21.625 10.9688Z" fill="#4B5578"/>
<path d="M11.9919 0.166178C11.85 0.0579929 11.6774 -0.000489286 11.5 -0.000489271C11.3226 -0.000489255 11.15 0.057993 11.0081 0.166178L1.32622 7.54951C1.17518 7.66529 1.06817 7.8306 1.02335 8.01741C0.978524 8.20423 0.998636 8.40105 1.08028 8.57451C1.20237 8.83091 1.36586 9.0647 1.56396 9.26618C2.02475 9.73515 2.64989 9.99893 3.30195 9.99951L19.6981 9.99951C20.3501 9.99893 20.9753 9.73515 21.436 9.26618C21.6341 9.0647 21.7976 8.83091 21.9197 8.57451C22.0014 8.40105 22.0215 8.20422 21.9767 8.01741C21.9318 7.83059 21.8248 7.66529 21.6738 7.54951L11.9919 0.166178ZM19.6981 8.33284L3.30195 8.33285C3.2259 8.34502 3.14845 8.34502 3.0724 8.33285L11.5 1.87451L19.9276 8.33284C19.8516 8.34502 19.7741 8.34502 19.6981 8.33284V8.33284Z" fill="#4B5578"/>
<path d="M15.9375 12.9995H7.6875C7.3078 12.9995 7 13.3073 7 13.687C7 14.0667 7.3078 14.3745 7.6875 14.3745H15.9375C16.3172 14.3745 16.625 14.0667 16.625 13.687C16.625 13.3073 16.3172 12.9995 15.9375 12.9995Z" fill="#4B5578"/>
</svg>
