<svg width="20" height="21" viewBox="0 0 20 21" fill="none" xmlns="http://www.w3.org/2000/svg">
<path d="M9.44996 10.8084L15.625 17.2856C15.7445 17.3931 15.8983 17.4492 16.0556 17.4429C16.2129 17.4365 16.3621 17.368 16.4734 17.2511C16.5847 17.1343 16.65 16.9776 16.656 16.8124C16.6621 16.6473 16.6086 16.4858 16.5062 16.3602L10.8437 10.4146L16.3437 4.63962C16.4601 4.51666 16.5255 4.35034 16.5255 4.17696C16.5255 4.00359 16.4601 3.83727 16.3437 3.71431C16.2856 3.6528 16.2165 3.60398 16.1403 3.57066C16.0642 3.53734 15.9825 3.52019 15.9 3.52019C15.8174 3.52019 15.7358 3.53735 15.6596 3.57066C15.5834 3.60398 15.5143 3.6528 15.4562 3.71431L9.44996 10.0209C9.35073 10.1254 9.29501 10.267 9.29501 10.4146C9.29501 10.5622 9.35073 10.7038 9.44996 10.8084Z" fill="#C586BD"/>
<path d="M3.46241 10.8084L9.63741 17.2856C9.75697 17.3931 9.91077 17.4492 10.0681 17.4429C10.2254 17.4365 10.3746 17.368 10.4859 17.2511C10.5972 17.1343 10.6624 16.9776 10.6685 16.8124C10.6746 16.6473 10.6211 16.4858 10.5187 16.3602L4.85616 10.4146L10.3562 4.63962C10.4726 4.51666 10.5379 4.35034 10.5379 4.17696C10.5379 4.00359 10.4726 3.83727 10.3562 3.71431C10.2391 3.59208 10.0806 3.52348 9.91553 3.52348C9.75042 3.52348 9.59201 3.59208 9.47491 3.71431L3.46241 10.0209C3.36317 10.1254 3.30746 10.267 3.30746 10.4146C3.30746 10.5622 3.36317 10.7038 3.46241 10.8084Z" fill="#C586BD"/>
</svg>
