<svg width="20" height="21" viewBox="0 0 20 21" fill="none" xmlns="http://www.w3.org/2000/svg">
<path d="M10.55 10.1916L4.37504 3.71444C4.25548 3.60693 4.10168 3.55075 3.94438 3.55713C3.78709 3.56351 3.63787 3.63198 3.52656 3.74885C3.41526 3.86573 3.35005 4.0224 3.34397 4.18756C3.3379 4.35272 3.3914 4.51421 3.49379 4.63975L9.15629 10.5854L3.65629 16.3604C3.53988 16.4833 3.47455 16.6497 3.47455 16.823C3.47455 16.9964 3.53988 17.1627 3.65629 17.2857V17.2857C3.71439 17.3472 3.78352 17.396 3.85968 17.4293C3.93584 17.4627 4.01753 17.4798 4.10004 17.4798C4.18255 17.4798 4.26424 17.4627 4.3404 17.4293C4.41656 17.396 4.48569 17.3472 4.54379 17.2857L10.55 10.9791C10.6493 10.8746 10.705 10.733 10.705 10.5854C10.705 10.4378 10.6493 10.2962 10.55 10.1916V10.1916Z" fill="url(#paint0_linear_308_18)"/>
<path d="M16.5376 10.1916L10.3626 3.71444C10.243 3.60693 10.0892 3.55075 9.93193 3.55713C9.77463 3.56351 9.62542 3.63198 9.51411 3.74885C9.4028 3.86573 9.3376 4.0224 9.33152 4.18756C9.32545 4.35272 9.37895 4.51421 9.48134 4.63975L15.1438 10.5854L9.64384 16.3604C9.52743 16.4833 9.46209 16.6497 9.46209 16.823C9.46209 16.9964 9.52743 17.1627 9.64384 17.2857C9.76094 17.4079 9.91935 17.4765 10.0845 17.4765C10.2496 17.4765 10.408 17.4079 10.5251 17.2857L16.5376 10.9791C16.6368 10.8746 16.6925 10.733 16.6925 10.5854C16.6925 10.4378 16.6368 10.2962 16.5376 10.1916V10.1916Z" fill="url(#paint1_linear_308_18)"/>
<defs>
<linearGradient id="paint0_linear_308_18" x1="3.34351" y1="8.5071" x2="10.705" y2="8.5071" gradientUnits="userSpaceOnUse">
<stop stop-color="#9345DD"/>
<stop offset="1" stop-color="#E747EB"/>
</linearGradient>
<linearGradient id="paint1_linear_308_18" x1="9.33105" y1="8.50593" x2="16.6925" y2="8.50593" gradientUnits="userSpaceOnUse">
<stop stop-color="#9345DD"/>
<stop offset="1" stop-color="#E747EB"/>
</linearGradient>
</defs>
</svg>
