<svg width="10" height="10" viewBox="0 0 10 10" fill="none" xmlns="http://www.w3.org/2000/svg">
<path d="M9.24384 4.18862H5.7689V0.790145C5.7689 0.580585 5.68566 0.379608 5.53748 0.231428C5.3893 0.0832468 5.18832 0 4.97876 0C4.7692 0 4.56822 0.0832468 4.42004 0.231428C4.27186 0.379608 4.18861 0.580585 4.18861 0.790145V4.18862H0.790145C0.580585 4.18862 0.379609 4.27186 0.231428 4.42004C0.0832468 4.56822 0 4.7692 0 4.97876C0 5.18832 0.0832468 5.38929 0.231428 5.53748C0.379609 5.68566 0.580585 5.7689 0.790145 5.7689H4.18861V9.20986C4.18861 9.41941 4.27186 9.62039 4.42004 9.76857C4.56822 9.91675 4.7692 10 4.97876 10C5.18832 10 5.3893 9.91675 5.53748 9.76857C5.68566 9.62039 5.7689 9.41941 5.7689 9.20986V5.73492H9.20986C9.41941 5.73492 9.62039 5.65167 9.76857 5.50349C9.91675 5.35531 10 5.15433 10 4.94477C10 4.73522 9.91675 4.53424 9.76857 4.38606C9.62039 4.23788 9.41941 4.15463 9.20986 4.15463L9.24384 4.18862Z" fill="#4B5578"/>
</svg>
