<svg width="27" height="28" viewBox="0 0 27 28" fill="none" xmlns="http://www.w3.org/2000/svg">
<path d="M12.7575 14.4112L21.0938 23.0474C21.2552 23.1908 21.4628 23.2657 21.6751 23.2572C21.8875 23.2487 22.0889 23.1574 22.2392 23.0015C22.3895 22.8457 22.4775 22.6368 22.4857 22.4166C22.4939 22.1964 22.4217 21.9811 22.2834 21.8137L14.6391 13.8862L22.0641 6.18616C22.2212 6.02222 22.3094 5.80045 22.3094 5.56929C22.3094 5.33812 22.2212 5.11635 22.0641 4.95241C21.9856 4.8704 21.8923 4.8053 21.7895 4.76088C21.6867 4.71646 21.5764 4.69359 21.465 4.69359C21.3536 4.69359 21.2433 4.71646 21.1405 4.76088C21.0377 4.8053 20.9444 4.8704 20.8659 4.95241L12.7575 13.3612C12.6235 13.5006 12.5483 13.6894 12.5483 13.8862C12.5483 14.083 12.6235 14.2718 12.7575 14.4112Z" fill="white"/>
<path d="M4.67449 14.4112L13.0107 23.0474C13.1722 23.1908 13.3798 23.2657 13.5921 23.2572C13.8045 23.2487 14.0059 23.1574 14.1562 23.0015C14.3065 22.8457 14.3945 22.6368 14.4027 22.4166C14.4109 22.1964 14.3387 21.9811 14.2004 21.8137L6.55606 13.8862L13.9811 6.18616C14.1382 6.02222 14.2264 5.80045 14.2264 5.56929C14.2264 5.33812 14.1382 5.11635 13.9811 4.95241C13.823 4.78944 13.6091 4.69797 13.3862 4.69797C13.1633 4.69797 12.9495 4.78944 12.7914 4.95241L4.67449 13.3612C4.54053 13.5006 4.46531 13.6894 4.46531 13.8862C4.46531 14.083 4.54053 14.2718 4.67449 14.4112Z" fill="white"/>
</svg>
