<svg width="23" height="25" viewBox="0 0 23 25" fill="none" xmlns="http://www.w3.org/2000/svg">
<path d="M19.5359 22.3369C19.5359 23.112 18.8981 23.7506 18.1229 23.7506" stroke="#4B5578" stroke-miterlimit="2.6131" stroke-linecap="round" stroke-linejoin="round"/>
<path d="M18.1229 23.75H2.69165" stroke="#4B5578" stroke-miterlimit="2.6131" stroke-linecap="round" stroke-linejoin="round"/>
<path d="M2.69165 23.7506C1.9172 23.7506 1.27795 23.1154 1.27795 22.3369" stroke="#4B5578" stroke-miterlimit="2.6131" stroke-linecap="round" stroke-linejoin="round"/>
<path d="M1.2782 22.3367V6.91025L7.39675 1.25H18.1231" stroke="#4B5578" stroke-miterlimit="2.6131" stroke-linecap="round" stroke-linejoin="round"/>
<path d="M18.1229 1.25C18.9015 1.25 19.5359 1.88925 19.5359 2.663" stroke="#4B5578" stroke-miterlimit="2.6131" stroke-linecap="round" stroke-linejoin="round"/>
<path d="M19.5359 2.66309V12.0188" stroke="#4B5578" stroke-miterlimit="2.6131" stroke-linecap="round" stroke-linejoin="round"/>
<path d="M7.67737 1.25V6.4686" stroke="#4B5578" stroke-miterlimit="2.6131" stroke-linecap="round" stroke-linejoin="round"/>
<path d="M7.67733 6.46875C7.67733 6.88265 7.33623 7.22515 6.92163 7.22515" stroke="#4B5578" stroke-miterlimit="2.6131" stroke-linecap="round" stroke-linejoin="round"/>
<path d="M6.9216 7.22461H1.27795" stroke="#4B5578" stroke-miterlimit="2.6131" stroke-linecap="round" stroke-linejoin="round"/>
<path d="M11.2826 3.64844H16.7092" stroke="#4B5578" stroke-miterlimit="2.6131" stroke-linecap="round" stroke-linejoin="round"/>
<path d="M16.7092 3.64844C16.893 3.64844 17.0455 3.81484 17.0455 4.01519" stroke="#4B5578" stroke-miterlimit="2.6131" stroke-linecap="round" stroke-linejoin="round"/>
<path d="M17.0455 4.01562V7.11542" stroke="#4B5578" stroke-miterlimit="2.6131" stroke-linecap="round" stroke-linejoin="round"/>
<path d="M17.0455 7.11523C17.0455 7.31769 16.893 7.48199 16.7092 7.48199" stroke="#4B5578" stroke-miterlimit="2.6131" stroke-linecap="round" stroke-linejoin="round"/>
<path d="M16.7092 7.48242H11.2826" stroke="#4B5578" stroke-miterlimit="2.6131" stroke-linecap="round" stroke-linejoin="round"/>
<path d="M11.2826 7.48198C11.0968 7.48198 10.9457 7.31768 10.9457 7.11523" stroke="#4B5578" stroke-miterlimit="2.6131" stroke-linecap="round" stroke-linejoin="round"/>
<path d="M10.9457 7.11542V4.01562" stroke="#4B5578" stroke-miterlimit="2.6131" stroke-linecap="round" stroke-linejoin="round"/>
<path d="M10.9457 4.01519C10.9457 3.81484 11.0968 3.64844 11.2826 3.64844" stroke="#4B5578" stroke-miterlimit="2.6131" stroke-linecap="round" stroke-linejoin="round"/>
<path d="M3.5105 11.0586H17.0767" stroke="#4B5578" stroke-miterlimit="2.6131" stroke-linecap="round" stroke-linejoin="round"/>
<path d="M3.5105 15.7617H12.8399" stroke="#4B5578" stroke-miterlimit="2.6131" stroke-linecap="round" stroke-linejoin="round"/>
<path d="M3.5105 20.4658H13.5069" stroke="#4B5578" stroke-miterlimit="2.6131" stroke-linecap="round" stroke-linejoin="round"/>
<path d="M21.722 17.0843C21.722 18.9001 20.2501 20.3734 18.4343 20.3734C16.6171 20.3734 15.1444 18.9001 15.1444 17.0843C15.1444 15.2671 16.6171 13.7959 18.4343 13.7959C19.0368 13.7959 19.6011 13.9581 20.0878 14.241" stroke="#4B5578" stroke-miterlimit="2.6131" stroke-linecap="round" stroke-linejoin="round"/>
<path d="M16.9901 16.7568L18.661 18.2884" stroke="#4B5578" stroke-miterlimit="2.6131" stroke-linecap="round" stroke-linejoin="round"/>
<path d="M21.722 14.9453L18.661 18.2885" stroke="#4B5578" stroke-miterlimit="2.6131" stroke-linecap="round" stroke-linejoin="round"/>
</svg>
