<svg width="24" height="24" fill="none" xmlns="http://www.w3.org/2000/svg"><path d="M20 20V1a1 1 0 0 0-1-1H1a1 1 0 0 0-1 1v19a1 1 0 0 0 1 1h18a1 1 0 0 0 1-1zM1 1h18v12.795l-3.145-3.145a.5.5 0 0 0-.705 0L12 13.795 8.395 10.19a.5.5 0 0 0-.705 0L1 16.87V1zm0 19v-1.715l7.04-7.04L16.795 20H1zm11.705-5.5 2.795-2.795 3.5 3.5V20h-.795l-5.5-5.5z" fill="#4B5578"/><path d="M23 3h-2v1h2v19H5v-1H4v1a1 1 0 0 0 1 1h18a1 1 0 0 0 1-1V4a1 1 0 0 0-1-1zM11 9a3 3 0 1 0 0-6 3 3 0 0 0 0 6zm0-5a2 2 0 1 1 0 4 2 2 0 0 1 0-4z" fill="#4B5578"/></svg>