<svg width="24" height="24" viewBox="0 0 24 24" fill="none" xmlns="http://www.w3.org/2000/svg">
<path d="M20 20V1C20 0.734784 19.8946 0.48043 19.7071 0.292893C19.5196 0.105357 19.2652 0 19 0L1 0C0.734783 0 0.48043 0.105357 0.292893 0.292893C0.105357 0.48043 0 0.734784 0 1L0 20C0 20.2652 0.105357 20.5196 0.292893 20.7071C0.48043 20.8946 0.734783 21 1 21H19C19.2652 21 19.5196 20.8946 19.7071 20.7071C19.8946 20.5196 20 20.2652 20 20ZM1 1H19V13.795L15.855 10.65C15.7613 10.5569 15.6346 10.5046 15.5025 10.5046C15.3704 10.5046 15.2437 10.5569 15.15 10.65L12 13.795L8.395 10.19C8.30132 10.0969 8.17459 10.0446 8.0425 10.0446C7.91041 10.0446 7.78368 10.0969 7.69 10.19L1 16.87V1ZM1 20V18.285L8.04 11.245L16.795 20H1ZM12.705 14.5L15.5 11.705L19 15.205V20H18.205L12.705 14.5Z" fill="white"/>
<path d="M23 3H21V4H23V23H5V22H4V23C4 23.2652 4.10536 23.5196 4.29289 23.7071C4.48043 23.8946 4.73478 24 5 24H23C23.2652 24 23.5196 23.8946 23.7071 23.7071C23.8946 23.5196 24 23.2652 24 23V4C24 3.73478 23.8946 3.48043 23.7071 3.29289C23.5196 3.10536 23.2652 3 23 3Z" fill="white"/>
<path d="M11 9C11.5933 9 12.1734 8.82405 12.6667 8.49441C13.1601 8.16477 13.5446 7.69623 13.7716 7.14805C13.9987 6.59987 14.0581 5.99667 13.9424 5.41473C13.8266 4.83279 13.5409 4.29824 13.1213 3.87868C12.7018 3.45912 12.1672 3.1734 11.5853 3.05765C11.0033 2.94189 10.4001 3.0013 9.85195 3.22836C9.30377 3.45543 8.83524 3.83994 8.50559 4.33329C8.17595 4.82664 8 5.40666 8 6C8 6.79565 8.31607 7.55871 8.87868 8.12132C9.44129 8.68393 10.2043 9 11 9ZM11 4C11.3956 4 11.7822 4.1173 12.1111 4.33706C12.44 4.55683 12.6964 4.86918 12.8478 5.23463C12.9991 5.60009 13.0387 6.00222 12.9616 6.39018C12.8844 6.77814 12.6939 7.13451 12.4142 7.41422C12.1345 7.69392 11.7781 7.8844 11.3902 7.96157C11.0022 8.03874 10.6001 7.99914 10.2346 7.84776C9.86918 7.69639 9.55682 7.44004 9.33706 7.11114C9.1173 6.78224 9 6.39556 9 6C9 5.46957 9.21071 4.96086 9.58579 4.58579C9.96086 4.21072 10.4696 4 11 4Z" fill="white"/>
</svg>
