<svg width="21" height="24" viewBox="0 0 21 24" fill="none" xmlns="http://www.w3.org/2000/svg">
<path d="M19.8637 3.93026C19.6769 3.81817 19.4528 3.81817 19.2659 3.8929L17.8835 4.56543C17.5846 4.71488 17.4352 5.0885 17.5846 5.42477C17.7341 5.72367 18.1077 5.87312 18.444 5.72367L18.8923 5.49949L18.967 19.4358L13.811 21.9391V12.3742C13.811 12.038 13.5121 11.7391 13.1758 11.7391C12.8396 11.7391 12.5407 12.038 12.5407 12.3742V22.0138L6.63737 19.6226V17.1566C7.3099 16.4467 9.1033 14.3544 9.1033 12.972C9.1033 11.4775 8.01979 10.2072 6.63737 9.94565V5.35004L7.75825 5.72367C8.09451 5.83576 8.43078 5.64894 8.54286 5.35004C8.65495 5.05114 8.46814 4.67751 8.16924 4.56543L6.18902 3.8929C6.03957 3.85554 5.85276 3.85554 5.7033 3.93026L0.734073 6.3962C0.584622 6.50828 0.472534 6.73246 0.472534 6.95664V22.2753C0.472534 22.4995 0.584622 22.6863 0.771435 22.7984C0.958248 22.9105 1.18242 22.9478 1.36924 22.8358L6.18902 20.7808L12.989 23.5083C13.0637 23.5456 13.1385 23.5456 13.2132 23.5456C13.3253 23.5456 13.4 23.5083 13.4747 23.4709L19.9011 20.3698C20.1253 20.2577 20.2747 20.0336 20.2374 19.8094L20.1253 4.4907C20.1626 4.26653 20.0506 4.04235 19.8637 3.93026ZM7.9077 12.972C7.9077 13.6072 6.93627 14.9896 6.07693 15.9984C5.21759 14.9896 4.24616 13.6445 4.24616 12.972C4.24616 11.9632 5.06814 11.1413 6.07693 11.1413C7.08572 11.1413 7.9077 11.9632 7.9077 12.972ZM1.74286 7.33026L5.44177 5.49949V9.94565C4.02199 10.2445 2.97583 11.4775 2.97583 12.972C2.97583 14.3544 4.76924 16.4467 5.44177 17.1566V19.7347L1.74286 21.3413V7.33026Z" fill="white"/>
<path d="M5.2923 13.009C5.2923 13.42 5.62856 13.7562 6.03955 13.7562C6.45054 13.7562 6.7868 13.42 6.7868 13.009C6.7868 12.598 6.45054 12.2617 6.03955 12.2617C5.62856 12.2617 5.2923 12.598 5.2923 13.009Z" fill="white"/>
<path d="M16.8979 4.51996L16.8978 4.51996V4.5279C16.8978 4.96289 16.7214 5.52386 16.4014 6.16277C16.0865 6.79143 15.657 7.44817 15.2062 8.06143C14.3301 9.2533 13.405 10.2389 13.1769 10.4702C13.1638 10.456 13.149 10.4399 13.1325 10.422C12.8324 10.0963 11.9769 9.1679 11.1588 8.06045C10.7054 7.44682 10.2724 6.78994 9.95473 6.1612C9.63176 5.52201 9.45386 4.96173 9.45386 4.5279C9.45386 2.45019 11.1355 0.768555 13.2132 0.768555C15.2522 0.768555 16.9308 2.44707 16.8979 4.51996ZM15.0209 4.41581C15.0209 3.38312 14.1898 2.60812 13.2132 2.60812C12.2272 2.60812 11.4055 3.42977 11.4055 4.41581C11.4055 5.4392 12.1898 6.2235 13.2132 6.2235C14.2459 6.2235 15.0209 5.39246 15.0209 4.41581Z" stroke="white"/>
</svg>
