<svg width="23" height="25" fill="none" xmlns="http://www.w3.org/2000/svg"><path d="M19.536 22.337a1.42 1.42 0 0 1-1.413 1.414M18.123 23.75H2.692M2.692 23.75a1.42 1.42 0 0 1-1.414-1.413M1.278 22.337V6.91l6.119-5.66h10.726M18.123 1.25c.778 0 1.413.64 1.413 1.413M19.536 2.663v9.356M7.677 1.25v5.219" stroke="#4B5578" stroke-miterlimit="2.613" stroke-linecap="round" stroke-linejoin="round"/><path d="M7.677 6.469a.76.76 0 0 1-.755.756M6.922 7.225H1.278M11.283 3.648h5.426M16.71 3.648c.183 0 .335.167.335.367M17.046 4.016v3.1M17.046 7.115c0 .203-.153.367-.337.367M16.71 7.482h-5.427M11.283 7.482c-.186 0-.337-.164-.337-.367M10.946 7.115v-3.1M10.946 4.015c0-.2.15-.367.337-.367M3.51 11.059h13.567M3.51 15.762h9.33M3.51 20.466h9.997M21.722 17.084a3.289 3.289 0 1 1-1.634-2.843M16.99 16.757l1.671 1.531M21.722 14.945l-3.061 3.343" stroke="#4B5578" stroke-miterlimit="2.613" stroke-linecap="round" stroke-linejoin="round"/></svg>