<svg width="24" height="24" fill="none" xmlns="http://www.w3.org/2000/svg"><circle cx="12" cy="12" r="12" fill="#fff"/><g clip-path="url(#a)" fill="#9A339C"><path d="M11.945 12.588h.1c.92-.015 1.664-.339 2.213-.957 1.209-1.362 1.008-3.698.986-3.92-.078-1.674-.87-2.474-1.522-2.848-.487-.279-1.055-.43-1.689-.442H11.979c-.348 0-1.032.056-1.688.43-.66.373-1.463 1.174-1.541 2.86-.022.222-.223 2.558.985 3.92.546.618 1.29.942 2.21.957ZM9.588 7.79c0-.01.003-.019.003-.025.104-2.25 1.701-2.492 2.386-2.492H12.014c.848.018 2.289.364 2.386 2.492 0 .01 0 .019.003.025.003.022.223 2.156-.775 3.28-.396.446-.923.666-1.617.672h-.031c-.69-.006-1.221-.226-1.614-.672-.995-1.117-.781-3.261-.778-3.28Z"/><path d="M18.446 16.462v-.01c0-.025-.003-.05-.003-.078-.02-.621-.06-2.075-1.422-2.54-.01-.002-.022-.005-.032-.009-1.415-.36-2.592-1.177-2.605-1.186a.423.423 0 1 0-.486.694c.053.037 1.302.907 2.865 1.309.732.26.813 1.042.835 1.757 0 .028 0 .054.003.079.004.282-.015.719-.066.97-.508.288-2.501 1.287-5.533 1.287-3.02 0-5.026-1.002-5.538-1.29a5.394 5.394 0 0 1-.065-.97c0-.026.003-.05.003-.079.022-.716.103-1.497.835-1.758 1.563-.402 2.812-1.274 2.865-1.309a.423.423 0 1 0-.486-.693c-.013.01-1.183.825-2.605 1.186-.013.003-.022.007-.032.01-1.362.467-1.403 1.92-1.422 2.539 0 .028 0 .053-.003.079v.009c-.003.163-.006 1.001.16 1.422.032.081.088.15.164.198.094.062 2.35 1.5 6.127 1.5 3.776 0 6.033-1.44 6.127-1.5a.42.42 0 0 0 .163-.198c.157-.418.154-1.256.15-1.419Z"/></g><defs><clipPath id="a"><path fill="#fff" transform="translate(4.421 4.42)" d="M0 0h15.158v15.158H0z"/></clipPath></defs></svg>