<svg width="22" height="23" fill="none" xmlns="http://www.w3.org/2000/svg"><path d="M16.562 1.87V.423a.344.344 0 0 1 .029-.15c.075-.19.361-.257.403-.255.078.007.09.014.124.027.152.06.25.176.257.378v1.453l.446.003c1.775.033 3.376 1.564 3.41 3.41.029 4.483 0 8.967 0 13.45-.011 1.792-1.526 3.417-3.41 3.452-4.484.027-8.967 0-13.45 0-1.795-.01-3.418-1.554-3.452-3.41-.029-4.484 0-8.967 0-13.45.011-1.794 1.543-3.418 3.41-3.452l1.061-.006V.422c.003-.078.01-.091.02-.125.067-.206.37-.282.412-.28.078.007.09.014.124.027.152.06.25.176.257.378v1.446c3.453-.016 6.906-.015 10.36.003zm0 .814c-3.453-.014-6.906 0-10.359.005v1.796c-.012.367-.123.36-.33.399a.42.42 0 0 1-.483-.4V2.69H4.373C2.998 2.7 1.757 3.886 1.731 5.298c-.029 4.49-.029 8.981 0 13.472.025 1.356 1.189 2.581 2.608 2.608 4.49.026 8.981.026 13.472 0 1.358-.026 2.581-1.197 2.607-2.608.03-4.49.03-8.981 0-13.472-.025-1.353-1.18-2.581-2.607-2.608l-.436-.002v1.797c-.01.29-.095.292-.21.356-.244.133-.593-.05-.603-.356V2.684zm.406 13.006H4.575c-.417-.022-.619-.779 0-.812h12.393l.044.002c.47.077.4.326.348.513a.428.428 0 0 1-.392.297zm-2.643-3.25h-9.75c-.43-.02-.562-.785 0-.812h9.75c.013 0 .026 0 .039.002.266.038.304.152.345.271.083.24-.11.526-.384.54zm-3.25-3.25h-6.5c-.406-.016-.59-.79 0-.812h6.532c.21.026.222.078.277.142.198.233.034.657-.31.67z" fill="#4B5578"/></svg>