<svg width="24" height="24" viewBox="0 0 24 24" fill="none" xmlns="http://www.w3.org/2000/svg">
<circle cx="12" cy="12" r="12" fill="#4B5578"/>
<g clip-path="url(#clip0_207_2261)">
<path d="M11.9451 12.5884C11.9608 12.5884 11.9765 12.5884 11.9953 12.5884C12.0016 12.5884 12.0079 12.5884 12.0142 12.5884C12.0236 12.5884 12.0361 12.5884 12.0456 12.5884C12.9653 12.5727 13.7092 12.2494 14.2585 11.631C15.467 10.2687 15.2661 7.93336 15.2441 7.7105C15.1657 6.03745 14.3747 5.23702 13.7218 4.86349C13.2352 4.58412 12.6671 4.43345 12.033 4.4209H12.011C12.0079 4.4209 12.0016 4.4209 11.9985 4.4209H11.9796C11.6312 4.4209 10.9469 4.4774 10.2909 4.85093C9.63173 5.22446 8.82816 6.02489 8.74969 7.7105C8.72771 7.93336 8.52682 10.2687 9.73531 11.631C10.2815 12.2494 11.0254 12.5727 11.9451 12.5884ZM9.58778 7.78897C9.58778 7.77955 9.59092 7.77014 9.59092 7.76386C9.69451 5.51325 11.2922 5.27155 11.9765 5.27155H11.9891C11.9953 5.27155 12.0048 5.27155 12.0142 5.27155C12.8617 5.29038 14.3025 5.63566 14.3998 7.76386C14.3998 7.77328 14.3998 7.78269 14.4029 7.78897C14.406 7.81094 14.6258 9.94542 13.6276 11.0692C13.2321 11.5149 12.7047 11.7346 12.011 11.7409C12.0048 11.7409 12.0016 11.7409 11.9953 11.7409C11.9891 11.7409 11.9859 11.7409 11.9796 11.7409C11.2891 11.7346 10.7586 11.5149 10.3662 11.0692C9.3712 9.95169 9.58464 7.8078 9.58778 7.78897Z" fill="white"/>
<path d="M18.4458 16.462C18.4458 16.4589 18.4458 16.4558 18.4458 16.4526C18.4458 16.4275 18.4426 16.4024 18.4426 16.3742C18.4238 15.7526 18.383 14.2993 17.0207 13.8348C17.0113 13.8316 16.9987 13.8285 16.9893 13.8253C15.5737 13.4644 14.3966 12.6482 14.384 12.6388C14.1925 12.5038 13.9289 12.5509 13.7939 12.7424C13.6589 12.9339 13.706 13.1976 13.8975 13.3325C13.9508 13.3702 15.2001 14.2397 16.7633 14.6415C17.4947 14.902 17.5763 15.6836 17.5983 16.3993C17.5983 16.4275 17.5983 16.4526 17.6014 16.4777C17.6046 16.7602 17.5857 17.1966 17.5355 17.4477C17.027 17.7364 15.0338 18.7346 12.0016 18.7346C8.98191 18.7346 6.97613 17.7333 6.46449 17.4445C6.41427 17.1934 6.39229 16.7571 6.39857 16.4746C6.39857 16.4495 6.40171 16.4244 6.40171 16.3961C6.42368 15.6804 6.50529 14.8989 7.23667 14.6383C8.79985 14.2365 10.0491 13.3639 10.1025 13.3294C10.294 13.1944 10.3411 12.9307 10.2061 12.7393C10.0711 12.5478 9.80745 12.5007 9.61597 12.6357C9.60342 12.6451 8.4326 13.4612 7.01066 13.8222C6.99811 13.8253 6.98869 13.8285 6.97927 13.8316C5.61698 14.2993 5.57617 15.7526 5.55734 16.371C5.55734 16.3993 5.55734 16.4244 5.5542 16.4495C5.5542 16.4526 5.5542 16.4558 5.5542 16.4589C5.55106 16.6221 5.54792 17.4602 5.71428 17.8808C5.74567 17.9625 5.80217 18.0315 5.87751 18.0786C5.97168 18.1414 8.22857 19.579 12.0047 19.579C15.7808 19.579 18.0377 18.1382 18.1319 18.0786C18.2041 18.0315 18.2637 17.9625 18.2951 17.8808C18.4521 17.4634 18.4489 16.6253 18.4458 16.462Z" fill="white"/>
</g>
<defs>
<clipPath id="clip0_207_2261">
<rect width="15.1579" height="15.1579" fill="white" transform="translate(4.42102 4.4209)"/>
</clipPath>
</defs>
</svg>
