<svg width="20" height="20" fill="none" xmlns="http://www.w3.org/2000/svg"><g clip-path="url(#a)"><path d="M18.385 2.84a5.49 5.49 0 0 0-3.913-1.62c-1.48 0-2.87.577-3.918 1.625l-.547.547-.556-.556A5.518 5.518 0 0 0 5.53 1.208a5.498 5.498 0 0 0-3.91 1.62A5.483 5.483 0 0 0 0 6.746c0 1.48.58 2.866 1.628 3.914l7.963 7.963a.572.572 0 0 0 .806.004l7.98-7.95A5.504 5.504 0 0 0 20 6.759a5.479 5.479 0 0 0-1.616-3.918zm-.814 7.027-7.577 7.547-7.56-7.56a4.365 4.365 0 0 1-1.29-3.108c0-1.175.455-2.277 1.286-3.104a4.36 4.36 0 0 1 3.1-1.285c1.174 0 2.28.458 3.111 1.29l.959.957a.57.57 0 0 0 .81 0l.95-.95a4.372 4.372 0 0 1 3.107-1.288c1.17 0 2.273.458 3.104 1.284a4.361 4.361 0 0 1 1.285 3.109 4.344 4.344 0 0 1-1.285 3.108z" fill="#4B5578"/></g><defs><clipPath id="a"><path fill="#fff" d="M0 0h20v20H0z"/></clipPath></defs></svg>