<svg width="25" height="25" viewBox="0 0 25 25" fill="none" xmlns="http://www.w3.org/2000/svg">
<path d="M20.536 22.3364C20.536 23.1115 19.8981 23.7501 19.123 23.7501" stroke="white" stroke-miterlimit="2.6131" stroke-linecap="round" stroke-linejoin="round"/>
<path d="M19.123 23.7505H3.69171" stroke="white" stroke-miterlimit="2.6131" stroke-linecap="round" stroke-linejoin="round"/>
<path d="M3.69172 23.7506C2.91727 23.7506 2.27802 23.1154 2.27802 22.3369" stroke="white" stroke-miterlimit="2.6131" stroke-linecap="round" stroke-linejoin="round"/>
<path d="M2.2782 22.3367V6.91025L8.39675 1.25H19.1231" stroke="white" stroke-miterlimit="2.6131" stroke-linecap="round" stroke-linejoin="round"/>
<path d="M19.123 1.25C19.9016 1.25 20.536 1.88925 20.536 2.663" stroke="white" stroke-miterlimit="2.6131" stroke-linecap="round" stroke-linejoin="round"/>
<path d="M20.5359 2.66309V12.0188" stroke="white" stroke-miterlimit="2.6131" stroke-linecap="round" stroke-linejoin="round"/>
<path d="M8.67743 1.25V6.4686" stroke="white" stroke-miterlimit="2.6131" stroke-linecap="round" stroke-linejoin="round"/>
<path d="M8.67739 6.46875C8.67739 6.88265 8.33629 7.22515 7.92169 7.22515" stroke="white" stroke-miterlimit="2.6131" stroke-linecap="round" stroke-linejoin="round"/>
<path d="M7.92172 7.2251H2.27808" stroke="white" stroke-miterlimit="2.6131" stroke-linecap="round" stroke-linejoin="round"/>
<path d="M12.2827 3.64893H17.7093" stroke="white" stroke-miterlimit="2.6131" stroke-linecap="round" stroke-linejoin="round"/>
<path d="M17.7093 3.64893C17.893 3.64893 18.0456 3.81533 18.0456 4.01568" stroke="white" stroke-miterlimit="2.6131" stroke-linecap="round" stroke-linejoin="round"/>
<path d="M18.0456 4.01562V7.11542" stroke="white" stroke-miterlimit="2.6131" stroke-linecap="round" stroke-linejoin="round"/>
<path d="M18.0456 7.11523C18.0456 7.31769 17.893 7.48199 17.7093 7.48199" stroke="white" stroke-miterlimit="2.6131" stroke-linecap="round" stroke-linejoin="round"/>
<path d="M17.7093 7.48242H12.2827" stroke="white" stroke-miterlimit="2.6131" stroke-linecap="round" stroke-linejoin="round"/>
<path d="M12.2827 7.48247C12.0968 7.48247 11.9457 7.31817 11.9457 7.11572" stroke="white" stroke-miterlimit="2.6131" stroke-linecap="round" stroke-linejoin="round"/>
<path d="M11.9457 7.11542V4.01562" stroke="white" stroke-miterlimit="2.6131" stroke-linecap="round" stroke-linejoin="round"/>
<path d="M11.9457 4.01568C11.9457 3.81533 12.0968 3.64893 12.2827 3.64893" stroke="white" stroke-miterlimit="2.6131" stroke-linecap="round" stroke-linejoin="round"/>
<path d="M4.5105 11.0591H18.0767" stroke="white" stroke-miterlimit="2.6131" stroke-linecap="round" stroke-linejoin="round"/>
<path d="M4.5105 15.7617H13.8399" stroke="white" stroke-miterlimit="2.6131" stroke-linecap="round" stroke-linejoin="round"/>
<path d="M4.5105 20.4658H14.5069" stroke="white" stroke-miterlimit="2.6131" stroke-linecap="round" stroke-linejoin="round"/>
<path d="M22.722 17.0848C22.722 18.9006 21.2501 20.3739 19.4343 20.3739C17.6171 20.3739 16.1444 18.9006 16.1444 17.0848C16.1444 15.2676 17.6171 13.7964 19.4343 13.7964C20.0368 13.7964 20.6011 13.9586 21.0878 14.2415" stroke="white" stroke-miterlimit="2.6131" stroke-linecap="round" stroke-linejoin="round"/>
<path d="M17.9901 16.7573L19.661 18.2889" stroke="white" stroke-miterlimit="2.6131" stroke-linecap="round" stroke-linejoin="round"/>
<path d="M22.722 14.9458L19.661 18.289" stroke="white" stroke-miterlimit="2.6131" stroke-linecap="round" stroke-linejoin="round"/>
</svg>
