<svg width="21" height="24" fill="none" xmlns="http://www.w3.org/2000/svg"><path d="M19.864 3.93a.676.676 0 0 0-.598-.037l-1.382.672a.66.66 0 0 0-.3.86.66.66 0 0 0 .86.299l.448-.225.075 13.937-5.156 2.503v-9.565a.655.655 0 0 0-.635-.635.655.655 0 0 0-.635.635v9.64l-5.904-2.391v-2.466c.673-.71 2.466-2.803 2.466-4.185 0-1.495-1.083-2.765-2.466-3.026V5.35l1.121.374a.626.626 0 0 0 .785-.374c.112-.299-.075-.672-.374-.785l-1.98-.672a.729.729 0 0 0-.486.037L.734 6.396a.73.73 0 0 0-.261.56v15.32c0 .224.112.41.298.522.187.113.411.15.598.038l4.82-2.055 6.8 2.727c.075.038.15.038.224.038a.54.54 0 0 0 .262-.075L19.9 20.37c.224-.112.374-.336.336-.56l-.112-15.32a.556.556 0 0 0-.261-.56zM7.908 12.972c0 .635-.972 2.018-1.831 3.026-.86-1.008-1.83-2.353-1.83-3.026 0-1.009.821-1.83 1.83-1.83 1.009 0 1.83.821 1.83 1.83zM1.743 7.33 5.442 5.5v4.446a3.085 3.085 0 0 0-2.466 3.026c0 1.382 1.793 3.475 2.466 4.185v2.578l-3.7 1.606V7.331z" fill="#4B5578"/><path d="M5.292 13.009a.75.75 0 0 0 .748.747.75.75 0 0 0 .747-.747.75.75 0 0 0-.747-.747.75.75 0 0 0-.748.747z" fill="#4B5578"/><path d="M16.898 4.52v.008c0 .435-.177.996-.497 1.635-.314.628-.744 1.285-1.195 1.898a24.824 24.824 0 0 1-2.03 2.41l-.043-.049c-.3-.326-1.156-1.254-1.974-2.362-.454-.613-.887-1.27-1.204-1.899-.323-.639-.501-1.2-.501-1.633a3.757 3.757 0 0 1 3.76-3.76 3.694 3.694 0 0 1 3.684 3.752zm-1.877-.104a1.8 1.8 0 0 0-1.808-1.808c-.986 0-1.807.822-1.807 1.808 0 1.023.784 1.807 1.807 1.807a1.8 1.8 0 0 0 1.808-1.807z" stroke="#4B5578"/></svg>