<svg width="20" height="20" viewBox="0 0 20 20" fill="none" xmlns="http://www.w3.org/2000/svg">
<g clip-path="url(#clip0_207_2279)">
<path d="M18.3853 2.84051C17.338 1.79316 15.9515 1.22073 14.4716 1.22073C12.9918 1.22073 11.6011 1.79741 10.5537 2.84475L10.0068 3.39175L9.45131 2.83627C8.40399 1.78892 7.00899 1.20801 5.52917 1.20801C4.0536 1.20801 2.66284 1.78468 1.61976 2.82779C0.572443 3.87514 -0.00421693 5.26595 2.32178e-05 6.7458C2.32178e-05 8.22565 0.580923 9.61222 1.62824 10.6596L9.59123 18.6228C9.70148 18.733 9.84988 18.7924 9.99405 18.7924C10.1382 18.7924 10.2866 18.7373 10.3969 18.627L18.3768 10.6765C19.4241 9.62918 20.0008 8.23837 20.0008 6.75852C20.005 5.27867 19.4326 3.88786 18.3853 2.84051ZM17.5712 9.86664L9.99405 17.4143L2.43387 9.85392C1.6028 9.02282 1.14486 7.92035 1.14486 6.7458C1.14486 5.57125 1.59856 4.46877 2.42963 3.64192C3.25646 2.81507 4.35889 2.35712 5.52917 2.35712C6.70369 2.35712 7.81037 2.81507 8.64144 3.64616L9.59971 4.60446C9.82444 4.8292 10.1849 4.8292 10.4096 4.60446L11.3594 3.65464C12.1904 2.82355 13.2971 2.3656 14.4674 2.3656C15.6377 2.3656 16.7401 2.82355 17.5712 3.6504C18.4023 4.4815 18.856 5.58397 18.856 6.75852C18.8602 7.93307 18.4023 9.03555 17.5712 9.86664Z" fill="#4B5578"/>
</g>
<defs>
<clipPath id="clip0_207_2279">
<rect width="20" height="20" fill="white"/>
</clipPath>
</defs>
</svg>
