<svg width="31" height="24" viewBox="0 0 31 24" fill="none" xmlns="http://www.w3.org/2000/svg">
<g clip-path="url(#clip0_207_2822)">
<path d="M15.4375 14.2347C15.4553 14.2347 15.4732 14.2347 15.4946 14.2347C15.5017 14.2347 15.5088 14.2347 15.516 14.2347C15.5267 14.2347 15.5409 14.2347 15.5516 14.2347C16.5966 14.2128 17.4418 13.7611 18.066 12.8972C19.439 10.994 19.2108 7.73133 19.1858 7.41998C19.0967 5.08263 18.1979 3.96439 17.4561 3.44254C16.9033 3.05225 16.2578 2.84176 15.5374 2.82422H15.5124C15.5088 2.82422 15.5017 2.82422 15.4981 2.82422H15.4767C15.0809 2.82422 14.3034 2.90315 13.558 3.425C12.8091 3.94685 11.8961 5.06509 11.8069 7.41998C11.7819 7.73133 11.5537 10.994 12.9268 12.8972C13.5473 13.7611 14.3925 14.2128 15.4375 14.2347ZM12.7591 7.52961C12.7591 7.51646 12.7627 7.5033 12.7627 7.49453C12.8804 4.35029 14.6957 4.01263 15.4732 4.01263H15.4874C15.4946 4.01263 15.5053 4.01263 15.516 4.01263C16.4789 4.03894 18.1159 4.52132 18.2264 7.49453C18.2264 7.50768 18.2264 7.52084 18.23 7.52961C18.2336 7.56031 18.4832 10.5423 17.3491 12.1122C16.8997 12.7349 16.3006 13.0419 15.5124 13.0507C15.5053 13.0507 15.5017 13.0507 15.4946 13.0507C15.4874 13.0507 15.4839 13.0507 15.4767 13.0507C14.6921 13.0419 14.0894 12.7349 13.6436 12.1122C12.513 10.5511 12.7556 7.55592 12.7591 7.52961Z" fill="#4B5578"/>
<path d="M22.8235 19.6457C22.8235 19.6413 22.8235 19.637 22.8235 19.6326C22.8235 19.5975 22.82 19.5624 22.82 19.5229C22.7986 18.6547 22.7522 16.6243 21.2044 15.9753C21.1937 15.9709 21.1794 15.9665 21.1687 15.9621C19.5603 15.4578 18.2229 14.3176 18.2086 14.3045C17.991 14.1159 17.6915 14.1817 17.5381 14.4492C17.3847 14.7167 17.4382 15.085 17.6558 15.2736C17.7164 15.3262 19.1359 16.541 20.9119 17.1023C21.7429 17.4662 21.8356 18.5582 21.8606 19.558C21.8606 19.5975 21.8606 19.6326 21.8642 19.6677C21.8677 20.0623 21.8463 20.6719 21.7893 21.0227C21.2115 21.4261 18.9468 22.8207 15.5017 22.8207C12.0708 22.8207 9.79185 21.4218 9.21052 21.0183C9.15346 20.6675 9.1285 20.0579 9.13563 19.6633C9.13563 19.6282 9.1392 19.5931 9.1392 19.5536C9.16416 18.5538 9.25689 17.4619 10.0879 17.0979C11.8639 16.5366 13.2834 15.3175 13.344 15.2692C13.5616 15.0807 13.615 14.7123 13.4617 14.4448C13.3083 14.1773 13.0088 14.1115 12.7912 14.3001C12.7769 14.3132 11.4467 15.4534 9.83108 15.9577C9.81681 15.9621 9.80612 15.9665 9.79542 15.9709C8.24759 16.6243 8.20123 18.6547 8.17983 19.5186C8.17983 19.558 8.17983 19.5931 8.17626 19.6282C8.17626 19.6326 8.17626 19.637 8.17626 19.6413C8.1727 19.8694 8.16913 21.0402 8.35815 21.6279C8.39382 21.7419 8.45801 21.8384 8.5436 21.9041C8.6506 21.9918 11.2148 24.0003 15.5052 24.0003C19.7956 24.0003 22.3599 21.9875 22.4669 21.9041C22.5489 21.8384 22.6167 21.7419 22.6523 21.6279C22.8307 21.0446 22.8271 19.8738 22.8235 19.6457Z" fill="#4B5578"/>
</g>
<g clip-path="url(#clip1_207_2822)">
<path d="M5.69914 7.60698C5.71103 7.60698 5.72292 7.60698 5.73718 7.60698C5.74194 7.60698 5.74669 7.60698 5.75145 7.60698C5.75858 7.60698 5.76809 7.60698 5.77523 7.60698C6.47187 7.59236 7.03536 7.29124 7.45144 6.71531C8.36682 5.4465 8.21465 3.27141 8.19801 3.06384C8.13857 1.50561 7.53941 0.760113 7.04487 0.412215C6.67634 0.152023 6.24599 0.011694 5.76572 0H5.74907C5.74669 0 5.74194 0 5.73956 0H5.7253C5.46138 0 4.94306 0.0526232 4.44614 0.400521C3.94684 0.748419 3.33818 1.49391 3.27874 3.06384C3.26209 3.27141 3.10992 5.4465 4.0253 6.71531C4.43901 7.29124 5.0025 7.59236 5.69914 7.60698ZM3.91356 3.13693C3.91356 3.12816 3.91593 3.11939 3.91593 3.11354C3.9944 1.01738 5.2046 0.792272 5.72292 0.792272H5.73243C5.73718 0.792272 5.74432 0.792272 5.75145 0.792272C6.3934 0.809813 7.48473 1.1314 7.55843 3.11354C7.55843 3.12231 7.55843 3.13108 7.56081 3.13693C7.56319 3.15739 7.72962 5.14538 6.97354 6.192C6.67396 6.60714 6.27452 6.81178 5.74907 6.81763C5.74432 6.81763 5.74194 6.81763 5.73718 6.81763C5.73243 6.81763 5.73005 6.81763 5.7253 6.81763C5.20222 6.81178 4.80041 6.60714 4.5032 6.192C3.7495 5.15123 3.91118 3.15447 3.91356 3.13693Z" fill="#4B5578"/>
<path d="M10.6232 11.2147C10.6232 11.2117 10.6232 11.2088 10.6232 11.2059C10.6232 11.1825 10.6208 11.1591 10.6208 11.1328C10.6065 10.5539 10.5756 9.20036 9.54372 8.76768C9.53659 8.76476 9.52708 8.76184 9.51995 8.75891C8.44764 8.42271 7.55604 7.66259 7.54653 7.65382C7.4015 7.52811 7.20178 7.57196 7.09954 7.7503C6.9973 7.92863 7.03297 8.17421 7.178 8.29992C7.21842 8.335 8.16471 9.14482 9.34876 9.51903C9.90274 9.76168 9.96456 10.4896 9.9812 11.1562C9.9812 11.1825 9.9812 11.2059 9.98358 11.2293C9.98596 11.4924 9.97169 11.8988 9.93365 12.1326C9.54848 12.4016 8.03869 13.3313 5.74192 13.3313C3.45466 13.3313 1.93537 12.3987 1.54782 12.1297C1.50978 11.8958 1.49313 11.4895 1.49789 11.2264C1.49789 11.203 1.50027 11.1796 1.50027 11.1533C1.51691 10.4867 1.57873 9.75875 2.13271 9.5161C3.31676 9.14189 4.26305 8.32915 4.30347 8.297C4.4485 8.17128 4.48417 7.92571 4.38193 7.74738C4.27969 7.56904 4.07997 7.52519 3.93494 7.6509C3.92543 7.65967 3.03858 8.41978 1.96152 8.75599C1.95201 8.75891 1.94488 8.76183 1.93775 8.76476C0.905865 9.20036 0.874956 10.5539 0.860691 11.1299C0.860691 11.1562 0.860691 11.1796 0.858313 11.203C0.858313 11.2059 0.858313 11.2088 0.858313 11.2117C0.855936 11.3638 0.853558 12.1443 0.979571 12.5361C1.00335 12.6121 1.04614 12.6764 1.10321 12.7203C1.17454 12.7787 2.88404 14.1177 5.7443 14.1177C8.60457 14.1177 10.3141 12.7758 10.3854 12.7203C10.4401 12.6764 10.4853 12.6121 10.509 12.5361C10.6279 12.1473 10.6255 11.3667 10.6232 11.2147Z" fill="#4B5578"/>
</g>
<g clip-path="url(#clip2_207_2822)">
<path d="M25.2177 7.60698C25.2296 7.60698 25.2415 7.60698 25.2557 7.60698C25.2605 7.60698 25.2652 7.60698 25.27 7.60698C25.2771 7.60698 25.2866 7.60698 25.2938 7.60698C25.9904 7.59236 26.5539 7.29124 26.97 6.71531C27.8854 5.4465 27.7332 3.27141 27.7166 3.06384C27.6571 1.50561 27.058 0.760113 26.5634 0.412215C26.1949 0.152023 25.7645 0.011694 25.2843 0H25.2676C25.2652 0 25.2605 0 25.2581 0H25.2439C24.9799 0 24.4616 0.0526232 23.9647 0.400521C23.4654 0.748419 22.8567 1.49391 22.7973 3.06384C22.7806 3.27141 22.6285 5.4465 23.5439 6.71531C23.9576 7.29124 24.5211 7.59236 25.2177 7.60698ZM23.4321 3.13693C23.4321 3.12816 23.4345 3.11939 23.4345 3.11354C23.513 1.01738 24.7232 0.792272 25.2415 0.792272H25.251C25.2557 0.792272 25.2629 0.792272 25.27 0.792272C25.912 0.809813 27.0033 1.1314 27.077 3.11354C27.077 3.12231 27.077 3.13108 27.0794 3.13693C27.0817 3.15739 27.2482 5.14538 26.4921 6.192C26.1925 6.60714 25.7931 6.81178 25.2676 6.81763C25.2629 6.81763 25.2605 6.81763 25.2557 6.81763C25.251 6.81763 25.2486 6.81763 25.2439 6.81763C24.7208 6.81178 24.319 6.60714 24.0218 6.192C23.2681 5.15123 23.4297 3.15447 23.4321 3.13693Z" fill="#4B5578"/>
<path d="M30.1417 11.2147C30.1417 11.2117 30.1417 11.2088 30.1417 11.2059C30.1417 11.1825 30.1393 11.1591 30.1393 11.1328C30.1251 10.5539 30.0942 9.20036 29.0623 8.76768C29.0551 8.76476 29.0456 8.76184 29.0385 8.75891C27.9662 8.42271 27.0746 7.66259 27.0651 7.65382C26.9201 7.52811 26.7203 7.57196 26.6181 7.7503C26.5159 7.92863 26.5515 8.17421 26.6966 8.29992C26.737 8.335 27.6833 9.14482 28.8673 9.51903C29.4213 9.76168 29.4831 10.4896 29.4998 11.1562C29.4998 11.1825 29.4998 11.2059 29.5021 11.2293C29.5045 11.4924 29.4902 11.8988 29.4522 12.1326C29.067 12.4016 27.5572 13.3313 25.2605 13.3313C22.9732 13.3313 21.4539 12.3987 21.0664 12.1297C21.0283 11.8958 21.0117 11.4895 21.0164 11.2264C21.0164 11.203 21.0188 11.1796 21.0188 11.1533C21.0355 10.4867 21.0973 9.75875 21.6513 9.5161C22.8353 9.14189 23.7816 8.32915 23.822 8.297C23.9671 8.17128 24.0027 7.92571 23.9005 7.74738C23.7982 7.56904 23.5985 7.52519 23.4535 7.6509C23.444 7.65967 22.5571 8.41978 21.4801 8.75599C21.4706 8.75891 21.4634 8.76183 21.4563 8.76476C20.4244 9.20036 20.3935 10.5539 20.3792 11.1299C20.3792 11.1562 20.3792 11.1796 20.3769 11.203C20.3769 11.2059 20.3769 11.2088 20.3769 11.2117C20.3745 11.3638 20.3721 12.1443 20.4981 12.5361C20.5219 12.6121 20.5647 12.6764 20.6218 12.7203C20.6931 12.7787 22.4026 14.1177 25.2629 14.1177C28.1231 14.1177 29.8326 12.7758 29.904 12.7203C29.9586 12.6764 30.0038 12.6121 30.0276 12.5361C30.1465 12.1473 30.1441 11.3667 30.1417 11.2147Z" fill="#4B5578"/>
</g>
<defs>
<clipPath id="clip0_207_2822">
<rect width="17.2222" height="21.1765" fill="white" transform="translate(6.88879 2.82422)"/>
</clipPath>
<clipPath id="clip1_207_2822">
<rect width="11.4815" height="14.1176" fill="white"/>
</clipPath>
<clipPath id="clip2_207_2822">
<rect width="11.4815" height="14.1176" fill="white" transform="translate(19.5186)"/>
</clipPath>
</defs>
</svg>
