<svg width="22" height="23" viewBox="0 0 22 23" fill="none" xmlns="http://www.w3.org/2000/svg">
<path d="M16.5623 1.87075V0.422061C16.5648 0.33878 16.5735 0.31603 16.5908 0.272561C16.6665 0.0812177 16.9523 0.0152021 16.994 0.016624C17.0722 0.0239365 17.0846 0.0310458 17.1181 0.0442489C17.2702 0.104577 17.3683 0.219749 17.3748 0.422061V1.87522C17.5235 1.87603 17.6722 1.87705 17.8209 1.87786C19.5956 1.91076 21.1966 3.44151 21.2308 5.28792C21.2596 9.7713 21.2312 14.2549 21.2312 18.7382C21.2196 20.5298 19.7047 22.155 17.8207 22.19C13.3375 22.217 8.85396 22.1902 4.37058 22.1902C2.57557 22.1792 0.953206 20.6358 0.918878 18.7799C0.890034 14.2965 0.918675 9.81294 0.918675 5.32936C0.93005 3.53637 2.46161 1.91239 4.32874 1.87786C4.68258 1.87562 5.03642 1.87359 5.39047 1.87176V0.422061C5.39291 0.343655 5.39921 0.330655 5.41017 0.29653C5.477 0.0909677 5.77986 0.0152021 5.82211 0.016624C5.90031 0.0239365 5.91271 0.0310458 5.94622 0.0442489C6.09836 0.104577 6.19647 0.219749 6.20297 0.422061V1.86791C9.65589 1.85226 13.1092 1.85328 16.5623 1.87075ZM16.5623 2.68386C13.1092 2.66984 9.6561 2.68406 6.20297 2.68873V4.48456C6.19139 4.85161 6.08049 4.84409 5.87269 4.8837C5.6391 4.92819 5.39839 4.73664 5.39047 4.48456V2.68975C5.05125 2.68995 4.71203 2.69016 4.37302 2.69016C2.99827 2.69869 1.75738 3.88636 1.73138 5.29787C1.70233 9.78856 1.70233 14.2793 1.73138 18.7697C1.75636 20.1264 2.91966 21.351 4.33889 21.3775C8.82938 21.4045 13.3203 21.4045 17.8108 21.3775C19.1695 21.3523 20.3923 20.1813 20.4183 18.7697C20.4473 14.2793 20.4473 9.78856 20.4183 5.29787C20.3933 3.94486 19.2385 2.71676 17.8108 2.69036C17.6655 2.68934 17.5201 2.68853 17.3748 2.68772V4.48456C17.3655 4.77544 17.2802 4.77666 17.1642 4.84064C16.9207 4.9745 16.5719 4.79067 16.5623 4.48456V2.68386ZM16.9684 15.6902H4.57492C4.15791 15.6676 3.95641 14.9112 4.57492 14.8777H16.9684C16.983 14.8785 16.9978 14.8793 17.0125 14.8801C17.4813 14.9569 17.4116 15.2065 17.36 15.3926C17.3127 15.563 17.1469 15.6804 16.9684 15.6902ZM14.3249 12.4402H4.57492C4.14532 12.4196 4.01288 11.6545 4.57492 11.6277H14.3249C14.3377 11.6283 14.3505 11.6289 14.3635 11.6295C14.63 11.6679 14.6676 11.782 14.7088 11.9011C14.7921 12.1416 14.5987 12.4272 14.3249 12.4402ZM11.0749 9.19016H4.57492C4.16908 9.17411 3.98525 8.40081 4.57492 8.37766H11.0749C11.0855 8.37806 11.096 8.37847 11.1066 8.37887C11.3164 8.40366 11.3292 8.45627 11.3837 8.52005C11.5825 8.75283 11.4176 9.17675 11.0749 9.19016Z" fill="white"/>
</svg>
