<svg width="24" height="24" viewBox="0 0 24 24" fill="none" xmlns="http://www.w3.org/2000/svg">
<path d="M20.8757 19.8702C20.8757 20.898 20.0404 21.7649 19.0125 21.7649H4.10371C3.07588 21.7649 2.24055 20.898 2.24055 19.8702V4.96137C2.24055 3.93354 3.07588 3.12854 4.10371 3.12854H12.8V1.88721H4.10371C2.39105 1.88721 0.998047 3.24987 0.998047 4.96254V19.8702C0.998047 21.5829 2.39105 23.0062 4.10371 23.0062H19.0114C20.724 23.0062 22.117 21.5817 22.117 19.8702V11.2042H20.8745V19.8702H20.8757Z" fill="#4B5578"/>
<path d="M22.2757 1.69852C21.3377 0.759349 19.7008 0.759349 18.7617 1.69852L10.4282 10.032C10.3488 10.1113 10.2917 10.2117 10.2648 10.3202L9.3875 13.833C9.335 14.0442 9.39683 14.2682 9.55083 14.4233C9.66866 14.5412 9.82733 14.6053 9.9895 14.6053C10.0397 14.6053 10.0898 14.5995 10.14 14.5867L13.654 13.7082C13.7637 13.6813 13.8628 13.6242 13.9422 13.5449L22.2757 5.21135C22.7447 4.74235 23.0037 4.11818 23.0037 3.45435C23.0037 2.79052 22.7458 2.16752 22.2757 1.69852ZM13.1862 12.545L10.8435 13.1307L11.4292 10.788L18.323 3.89418L20.08 5.65118L13.1862 12.545ZM21.3972 4.33285L20.9585 4.77152L19.2015 3.01452L19.6402 2.57585C20.1092 2.10685 20.9282 2.10685 21.3972 2.57585C21.6317 2.81035 21.7612 3.12185 21.7612 3.45435C21.7612 3.78685 21.6317 4.09835 21.3972 4.33285Z" fill="#4B5578"/>
</svg>
