<svg width="20" height="20" viewBox="0 0 20 20" fill="none" xmlns="http://www.w3.org/2000/svg">
<g opacity="0.4">
<path d="M17.8551 9.24597L3.68846 2.57931C3.54581 2.51218 3.38704 2.4869 3.23059 2.5064C3.07415 2.5259 2.92644 2.58937 2.80463 2.68946C2.68282 2.78955 2.59189 2.92213 2.54242 3.07183C2.49294 3.22152 2.48695 3.38218 2.52513 3.53514L3.53513 7.57597L10.0001 10.0001L3.53513 12.4243L2.52513 16.4651C2.48623 16.6182 2.49173 16.7792 2.54097 16.9293C2.59022 17.0793 2.68118 17.2123 2.80321 17.3125C2.92524 17.4128 3.0733 17.4763 3.23007 17.4955C3.38684 17.5147 3.54584 17.4888 3.68846 17.421L17.8551 10.7543C17.9983 10.687 18.1193 10.5804 18.2041 10.4468C18.2889 10.3133 18.334 10.1583 18.334 10.0001C18.334 9.84195 18.2889 9.68702 18.2041 9.55347C18.1193 9.41992 17.9983 9.31327 17.8551 9.24597Z" fill="#4B5578"/>
</g>
</svg>
