<svg width="20" height="20" viewBox="0 0 20 20" fill="none" xmlns="http://www.w3.org/2000/svg">
<g opacity="0.3">
<path d="M10.7503 2.16621L12.6669 6.33288C12.7503 6.58288 13.0003 6.74954 13.2503 6.83288L17.5836 7.49954C18.3336 7.49954 18.5836 8.33288 18.0836 8.83288L14.9169 12.0829C14.7503 12.2495 14.6669 12.5829 14.6669 12.8329L15.4169 17.3329C15.5003 17.9995 14.8336 18.5829 14.2503 18.2495L10.3336 16.0829C10.0836 15.9162 9.83359 15.9162 9.58359 16.0829L5.66692 18.2495C5.08359 18.5829 4.33359 18.0829 4.50025 17.3329L5.25025 12.8329C5.33359 12.5829 5.16692 12.2495 5.00025 12.0829L1.83359 8.83288C1.41692 8.33288 1.66692 7.49954 2.33359 7.41621L6.66692 6.74954C6.91692 6.74954 7.16692 6.49954 7.25025 6.24954L9.16692 2.08288C9.58359 1.49954 10.4169 1.49954 10.7503 2.16621Z" fill="#A678C7"/>
<path d="M10.7503 2.16621L12.6669 6.33288C12.7503 6.58288 13.0003 6.74954 13.2503 6.83288L17.5836 7.49954C18.3336 7.49954 18.5836 8.33288 18.0836 8.83288L14.9169 12.0829C14.7503 12.2495 14.6669 12.5829 14.6669 12.8329L15.4169 17.3329C15.5003 17.9995 14.8336 18.5829 14.2503 18.2495L10.3336 16.0829C10.0836 15.9162 9.83359 15.9162 9.58359 16.0829L5.66692 18.2495C5.08359 18.5829 4.33359 18.0829 4.50025 17.3329L5.25025 12.8329C5.33359 12.5829 5.16692 12.2495 5.00025 12.0829L1.83359 8.83288C1.41692 8.33288 1.66692 7.49954 2.33359 7.41621L6.66692 6.74954C6.91692 6.74954 7.16692 6.49954 7.25025 6.24954L9.16692 2.08288C9.58359 1.49954 10.4169 1.49954 10.7503 2.16621Z" fill="#A678C7"/>
</g>
</svg>
