<svg width="18" height="18" viewBox="0 0 18 18" fill="none" xmlns="http://www.w3.org/2000/svg">
<path d="M12.0912 6.30722L12.1314 6.32062L12.1732 6.32706L16.5066 6.99373L16.5444 6.99954H16.5826C16.6747 6.99954 16.728 7.02399 16.7581 7.04532C16.7896 7.06769 16.8142 7.09991 16.8289 7.14227C16.8583 7.22738 16.8473 7.36108 16.7291 7.47932L16.729 7.47929L16.7245 7.48394L13.5598 10.732C13.3978 10.8952 13.3043 11.1049 13.2506 11.2796C13.1943 11.4623 13.1659 11.6577 13.1659 11.8329V11.8743L13.1727 11.9151L13.9207 16.403C13.9363 16.5512 13.8696 16.6944 13.766 16.7792C13.6692 16.8585 13.5797 16.8625 13.4973 16.8154L13.4974 16.8154L13.4913 16.812L9.59083 14.6543C9.40496 14.5346 9.19169 14.4579 8.95761 14.4579C8.72352 14.4579 8.51025 14.5346 8.32438 14.6543L4.42391 16.812L4.42389 16.812L4.41787 16.8154C4.21335 16.9323 3.91438 16.7698 3.98737 16.4413L3.99027 16.4283L3.99247 16.4151L4.73729 11.9462C4.81007 11.6836 4.75452 11.4287 4.6847 11.2471C4.60894 11.0502 4.48902 10.8663 4.35544 10.7319L1.2072 7.50086C1.12842 7.3977 1.10779 7.25516 1.1507 7.12641C1.19286 6.99993 1.2799 6.92669 1.39463 6.91235L1.40165 6.91147L1.40864 6.9104L5.71184 6.24836C5.98036 6.23456 6.20264 6.10169 6.35459 5.96494C6.51122 5.82398 6.64035 5.63815 6.71337 5.43709L8.59746 1.34123C8.7095 1.20419 8.85287 1.1514 8.97163 1.1555C9.08838 1.15952 9.21385 1.21816 9.29892 1.38362L11.202 5.52071C11.3662 5.97006 11.7853 6.20525 12.0912 6.30722Z" stroke="#CCAFDF"/>
</svg>
