<svg width="32" height="32" viewBox="0 0 32 32" fill="none" xmlns="http://www.w3.org/2000/svg">
<path d="M28.59 4.29008C28.2799 4.02964 27.9048 3.85853 27.5049 3.7951C27.105 3.73168 26.6954 3.77834 26.32 3.93008L3.40999 13.1001C3.07602 13.2388 2.79065 13.4734 2.58989 13.7741C2.38913 14.0749 2.28198 14.4284 2.28198 14.7901C2.28198 15.1517 2.38913 15.5052 2.58989 15.806C2.79065 16.1068 3.07602 16.3414 3.40999 16.4801L4.88999 17.0901C5.13401 17.1933 5.40902 17.1955 5.65464 17.0961C5.90025 16.9967 6.09639 16.8039 6.19999 16.5601C6.25081 16.4386 6.27715 16.3084 6.2775 16.1767C6.27785 16.0451 6.2522 15.9146 6.20203 15.7929C6.15186 15.6712 6.07815 15.5606 5.98514 15.4675C5.89212 15.3743 5.78162 15.3004 5.65999 15.2501L4.55999 14.8001L27.07 5.80008C27.1046 5.77886 27.1444 5.76763 27.185 5.76763C27.2256 5.76763 27.2654 5.77886 27.3 5.80008C27.3326 5.82779 27.3573 5.86373 27.3713 5.90418C27.3854 5.94462 27.3884 5.98809 27.38 6.03008L23.27 25.2101C23.2565 25.2784 23.2254 25.342 23.1798 25.3946C23.1342 25.4472 23.0757 25.487 23.01 25.5101C22.9455 25.5357 22.8754 25.5436 22.8068 25.533C22.7383 25.5225 22.6738 25.4939 22.62 25.4501L14.62 19.2101L22.45 11.3001C22.6173 11.1265 22.7162 10.8984 22.7287 10.6577C22.7411 10.417 22.6662 10.1799 22.5177 9.99006C22.3692 9.80021 22.1572 9.67036 21.9206 9.62443C21.684 9.57849 21.4387 9.61956 21.23 9.74008L9.74999 16.5401C9.62248 16.5977 9.50849 16.6814 9.41537 16.7859C9.32226 16.8903 9.25211 17.0132 9.20944 17.1464C9.16678 17.2797 9.15255 17.4204 9.16769 17.5595C9.18283 17.6986 9.22699 17.833 9.29732 17.954C9.36764 18.0749 9.46257 18.1798 9.57597 18.2618C9.68937 18.3437 9.8187 18.401 9.95562 18.4298C10.0925 18.4587 10.234 18.4585 10.3708 18.4292C10.5077 18.4 10.6368 18.3424 10.75 18.2601L15.58 15.4101L13.23 17.8001C13.015 18.0021 12.8474 18.2491 12.7391 18.5235C12.6308 18.7979 12.5846 19.0929 12.6037 19.3872C12.6228 19.6816 12.7068 19.9681 12.8496 20.2262C12.9925 20.4843 13.1907 20.7076 13.43 20.8801L21.43 27.0301C21.851 27.355 22.3681 27.5309 22.9 27.5301C23.1832 27.528 23.464 27.4773 23.73 27.3801C24.112 27.2429 24.4524 27.01 24.7185 26.7036C24.9847 26.3972 25.1677 26.0275 25.25 25.6301L29.33 6.47007C29.4166 6.07376 29.3934 5.66133 29.2631 5.2772C29.1327 4.89306 28.9 4.55177 28.59 4.29008Z" fill="url(#paint0_linear_114_16)"/>
<defs>
<linearGradient id="paint0_linear_114_16" x1="2.28198" y1="12.2165" x2="29.3814" y2="12.2165" gradientUnits="userSpaceOnUse">
<stop stop-color="#9345DD"/>
<stop offset="1" stop-color="#E747EB"/>
</linearGradient>
</defs>
</svg>
