<svg width="32" height="32" viewBox="0 0 32 32" fill="none" xmlns="http://www.w3.org/2000/svg">
<path d="M16.0001 3C13.7535 2.99896 11.5449 3.58016 9.58985 4.68691C7.63477 5.79365 5.99988 7.38818 4.8446 9.31498C3.68932 11.2418 3.0531 13.4351 2.99798 15.681C2.94285 17.927 3.47071 20.1488 4.53007 22.13L3.00007 27.74C2.94949 27.9155 2.94791 28.1014 2.99551 28.2777C3.0431 28.454 3.13806 28.6139 3.27007 28.74C3.36833 28.8297 3.48351 28.8989 3.60886 28.9436C3.73421 28.9882 3.86721 29.0074 4.00007 29C4.08948 29.0146 4.18066 29.0146 4.27007 29L10.1801 27.35C10.436 27.2797 10.6535 27.1106 10.7848 26.88C10.9161 26.6493 10.9504 26.3759 10.8801 26.12C10.8098 25.8641 10.6407 25.6465 10.41 25.5153C10.1794 25.384 9.90601 25.3497 9.65007 25.42L5.42007 26.56L6.57007 22.26C6.60421 22.133 6.61295 22.0005 6.59579 21.87C6.57863 21.7396 6.53591 21.6139 6.47007 21.5C5.25941 19.4031 4.77445 16.9653 5.0904 14.5647C5.40634 12.1641 6.50554 9.93476 8.21752 8.22249C9.92951 6.51021 12.1586 5.41064 14.5592 5.09429C16.9597 4.77794 19.3976 5.26249 21.4947 6.47279C23.5919 7.6831 25.2311 9.55153 26.1581 11.7883C27.0852 14.0251 27.2483 16.5053 26.6223 18.8443C25.9962 21.1833 24.6158 23.2503 22.6953 24.7249C20.7748 26.1995 18.4214 26.9992 16.0001 27C15.3837 27.0006 14.7682 26.9504 14.1601 26.85C13.8989 26.8066 13.6311 26.8685 13.4156 27.0223C13.2 27.176 13.0541 27.4089 13.0101 27.67C12.9667 27.9312 13.0286 28.1989 13.1823 28.4145C13.336 28.6301 13.569 28.7759 13.8301 28.82C15.6029 29.1181 17.4184 29.0453 19.1616 28.6061C20.9049 28.1669 22.5382 27.371 23.9582 26.2685C25.3782 25.166 26.5541 23.781 27.4116 22.2009C28.2691 20.6209 28.7896 18.8802 28.9402 17.0887C29.0907 15.2973 28.8681 13.4941 28.2863 11.7931C27.7046 10.0921 26.7763 8.5302 25.5602 7.20618C24.3442 5.88215 22.8667 4.82474 21.2211 4.10076C19.5756 3.37678 17.7978 3.00197 16.0001 3Z" fill="url(#paint0_linear_114_21)"/>
<path d="M15.0001 11.2103L13.8401 9.61027C13.6653 9.37049 13.4408 9.17129 13.1819 9.02631C12.923 8.88133 12.6359 8.79399 12.3401 8.77027C12.0428 8.74837 11.7444 8.79061 11.4648 8.89413C11.1853 8.99765 10.9314 9.16003 10.7201 9.37027L9.52009 10.5703C9.25194 10.8441 9.04265 11.1699 8.90507 11.5276C8.76749 11.8853 8.70454 12.2673 8.72009 12.6503C8.72009 14.4203 10.0801 16.6503 12.7201 19.2503C15.8101 22.2503 17.9501 23.2503 19.4101 23.2503C19.7812 23.26 20.1504 23.1931 20.4945 23.0538C20.8386 22.9144 21.1503 22.7055 21.4101 22.4403L22.6101 21.2403C22.8284 21.0355 22.998 20.7842 23.1063 20.5051C23.2146 20.226 23.2589 19.9262 23.2358 19.6277C23.2128 19.3292 23.1231 19.0397 22.9732 18.7806C22.8234 18.5214 22.6173 18.2992 22.3701 18.1303L20.8001 17.0003C20.5387 16.8128 20.2376 16.6882 19.9202 16.6362C19.6028 16.5842 19.2776 16.6061 18.9701 16.7003L17.4801 17.1703C17.387 17.1637 17.2973 17.1326 17.2201 17.0803C16.3327 16.4432 15.5413 15.6821 14.8701 14.8203C14.8635 14.7839 14.8635 14.7466 14.8701 14.7103C15.0001 14.2703 15.2201 13.5603 15.3701 13.0703C15.4671 12.7538 15.4841 12.4183 15.4196 12.0936C15.355 11.769 15.2109 11.4655 15.0001 11.2103ZM16.2901 18.8403C16.8248 19.1334 17.4531 19.2052 18.0401 19.0403L19.5801 18.5803L21.1901 19.8303L20.0001 21.0003C19.5201 21.4703 17.7501 21.3303 14.1401 17.7903C11.1401 14.8803 10.7301 13.2903 10.7301 12.6103C10.7376 12.3796 10.8344 12.1609 11.0001 12.0003L12.2801 10.8103L13.4601 12.4603C13.3001 12.9503 13.0701 13.6803 12.9501 14.1103C12.8076 14.5691 12.8253 15.0628 13.0001 15.5103C13.8625 16.843 14.9974 17.9779 16.3301 18.8403H16.2901Z" fill="url(#paint1_linear_114_21)"/>
<defs>
<linearGradient id="paint0_linear_114_21" x1="2.96094" y1="12.2483" x2="28.9859" y2="12.2483" gradientUnits="userSpaceOnUse">
<stop stop-color="#9345DD"/>
<stop offset="1" stop-color="#E747EB"/>
</linearGradient>
<linearGradient id="paint1_linear_114_21" x1="8.71777" y1="13.9154" x2="23.2418" y2="13.9154" gradientUnits="userSpaceOnUse">
<stop stop-color="#9345DD"/>
<stop offset="1" stop-color="#E747EB"/>
</linearGradient>
</defs>
</svg>
