<svg width="32" height="32" viewBox="0 0 32 32" fill="none" xmlns="http://www.w3.org/2000/svg">
<path d="M31.697 30.2591L23.435 22.1292C25.5985 19.7786 26.9279 16.6699 26.9279 13.2491C26.9269 5.93136 20.8993 0 13.4634 0C6.02753 0 0 5.93136 0 13.2491C0 20.5668 6.02753 26.4982 13.4634 26.4982C16.6763 26.4982 19.623 25.387 21.9376 23.5395L30.2317 31.7014C30.6358 32.0995 31.2919 32.0995 31.6961 31.7014C32.1012 31.3034 32.1012 30.6572 31.697 30.2591ZM13.4634 24.4597C7.17185 24.4597 2.07154 19.4406 2.07154 13.2491C2.07154 7.05762 7.17185 2.03845 13.4634 2.03845C19.7551 2.03845 24.8553 7.05762 24.8553 13.2491C24.8553 19.4406 19.7551 24.4597 13.4634 24.4597Z" fill="url(#paint0_linear_142_109)"/>
<defs>
<linearGradient id="paint0_linear_142_109" x1="0" y1="11.3778" x2="32" y2="11.3778" gradientUnits="userSpaceOnUse">
<stop stop-color="#9345DD"/>
<stop offset="1" stop-color="#E747EB"/>
</linearGradient>
</defs>
</svg>
